<svg xmlns="http://www.w3.org/2000/svg" width="500" height="810.266" viewBox="0 0 21 34.031">
  <metadata><?xpacket begin="﻿" id="W5M0MpCehiHzreSzNTczkc9d"?>
<x:xmpmeta xmlns:x="adobe:ns:meta/" x:xmptk="Adobe XMP Core 5.6-c138 79.159824, 2016/09/14-01:09:01        ">
   <rdf:RDF xmlns:rdf="http://www.w3.org/1999/02/22-rdf-syntax-ns#">
      <rdf:Description rdf:about=""/>
   </rdf:RDF>
</x:xmpmeta>
                                                                                                    
                                                                                                    
                                                                                                    
                                                                                                    
                                                                                                    
                                                                                                    
                                                                                                    
                                                                                                    
                                                                                                    
                                                                                                    
                                                                                                    
                                                                                                    
                                                                                                    
                                                                                                    
                                                                                                    
                                                                                                    
                                                                                                    
                                                                                                    
                                                                                                    
                                                                                                    
                           
<?xpacket end="w"?></metadata>
<defs>
    <style>
      .cls-1 {
        fill: #9d7fc1;
        fill-rule: evenodd;
      }
    </style>
  </defs>
  <path id="dollar_bag_копия" data-name="dollar bag копия" class="cls-1" d="M641.36,104.449a2.675,2.675,0,0,0-.491-0.782,3.252,3.252,0,0,0-.7-0.571,7.732,7.732,0,0,0-.8-0.426c-0.27-.125-0.536-0.244-0.8-0.356a5.1,5.1,0,0,1-.7-0.36,1.742,1.742,0,0,1-.492-0.437,0.949,0.949,0,0,1-.183-0.583,1.124,1.124,0,0,1,.082-0.428,0.886,0.886,0,0,1,.249-0.347,1.224,1.224,0,0,1,.418-0.226,1.9,1.9,0,0,1,.585-0.082,2.82,2.82,0,0,1,.788.1,4.339,4.339,0,0,1,.632.233c0.183,0.085.336,0.164,0.461,0.236a0.649,0.649,0,0,0,.273.109,0.189,0.189,0,0,0,.136-0.047,0.3,0.3,0,0,0,.078-0.149,1.363,1.363,0,0,0,.04-0.258c0.007-.105.011-0.233,0.011-0.384s0-.25-0.008-0.341a1.491,1.491,0,0,0-.027-0.228,0.6,0.6,0,0,0-.047-0.145,0.539,0.539,0,0,0-.105-0.132,1.3,1.3,0,0,0-.32-0.194,3.765,3.765,0,0,0-.554-0.21,4.912,4.912,0,0,0-.671-0.148,4.781,4.781,0,0,0-.718-0.054,4.7,4.7,0,0,0-1.315.18,3.077,3.077,0,0,0-1.076.543,2.609,2.609,0,0,0-.726.915,2.886,2.886,0,0,0-.269,1.279,2.844,2.844,0,0,0,.187,1.087,2.673,2.673,0,0,0,.488.785,3.141,3.141,0,0,0,.682.571,7.068,7.068,0,0,0,.788.427c0.271,0.125.533,0.244,0.788,0.355a5.167,5.167,0,0,1,.683.36,1.857,1.857,0,0,1,.487.439,0.942,0.942,0,0,1,.188.59,1.3,1.3,0,0,1-.11.54,1.065,1.065,0,0,1-.316.408,1.507,1.507,0,0,1-.5.255,2.309,2.309,0,0,1-.671.09,3.524,3.524,0,0,1-1-.129,4.529,4.529,0,0,1-.745-0.286,5.121,5.121,0,0,1-.511-0.284,0.651,0.651,0,0,0-.308-0.129,0.222,0.222,0,0,0-.137.044,0.294,0.294,0,0,0-.094.144,1.189,1.189,0,0,0-.05.267c-0.011.11-.016,0.245-0.016,0.407a2.669,2.669,0,0,0,.043.553,0.578,0.578,0,0,0,.144.292,1.629,1.629,0,0,0,.332.233,3.444,3.444,0,0,0,.574.252,5.523,5.523,0,0,0,.792.2,5.19,5.19,0,0,0,.971.086,5.02,5.02,0,0,0,1.452-.2,3.475,3.475,0,0,0,1.186-.606,2.9,2.9,0,0,0,.8-1,3.123,3.123,0,0,0,.3-1.4A2.741,2.741,0,0,0,641.36,104.449Zm-3.506-7.456h1.229v2.464h-1.229V96.993Zm0,10.469h1.229v2.463h-1.229v-2.463ZM636.011,90.22h4.877s8.1,7.89,8.1,15.741-8.525,8.852-8.525,8.852a12.209,12.209,0,0,1-4.07,0s-8.409-.654-8.409-8.89C627.986,98.148,636.011,90.22,636.011,90.22Zm0-2.463h4.915V89.6h-4.915V87.756Zm-2.457-6.7,2.534,6.082h4.761l2.5-6.158a5.98,5.98,0,0,1-2.5,1.309,5.4,5.4,0,0,1-2.38-1.27,6.043,6.043,0,0,1-2.5,1.27A5.661,5.661,0,0,1,633.554,81.059Z" transform="translate(-628 -80.969)"/>
</svg>
