<?xml version="1.0" encoding="UTF-8" standalone="no"?>
<!DOCTYPE svg  PUBLIC '-//W3C//DTD SVG 1.1//EN'  'http://www.w3.org/Graphics/SVG/1.1/DTD/svg11.dtd'>
<svg xmlns="http://www.w3.org/2000/svg" version="1.1">
<defs>
<font id="Trench-Medium" horiz-adv-x="526">
<font-face font-family="Trench" font-weight="500" unicode-range="U+0020-02DC" underline-position="-150" x-height="423" bbox="-147 -228 747 746.789" panose-1="2 0 0 0 0 0 0 0 0 0" underline-thickness="50" units-per-em="1000" ascent="750" descent="-250" cap-height="559"/>
<missing-glyph/>
<glyph glyph-name="space" horiz-adv-x="222" unicode=" "/>
<glyph glyph-name="space" horiz-adv-x="222" unicode=" "/>
<glyph glyph-name="exclam" d="M42 83q17 0 29 -12.5t12 -29.5t-12 -29t-29 -12t-29.5 12t-12.5 29t12.5 29.5t29.5 12.5zM77 524v-383q0 -14 -10.5 -24.5t-24.5 -10.5q-15 0 -25.5 10.5t-10.5 24.5v383q0 15 10.5 25.5t25.5 10.5q14 0 24.5 -10.5t10.5 -25.5z" horiz-adv-x="171" unicode="!"/>
<glyph glyph-name="quotedbl" d="M0 525v36v10q0 14 7.5 25t23.5 11q15 0 23 -11t8 -25v-10v-36v-10q0 -14 -8 -25t-23 -11q-16 0 -23.5 11t-7.5 25v10zM79 525v36v10q0 14 7.5 25t23.5 11q15 0 23 -11t8 -25v-10v-36v-10q0 -14 -8 -25t-23 -11q-16 0 -23.5 11t-7.5 25v10z" horiz-adv-x="291" unicode='&quot;'/>
<glyph glyph-name="numbersign" d="M101 173h-66q-14 0 -24.5 10.5t-10.5 24.5t10.5 24.5t24.5 10.5h107l42 74h-149q-14 0 -24.5 10.5t-10.5 24.5q0 15 10.5 25t24.5 10h190l34 60q9 15 19 34.5t21 37t22.5 29.5t23.5 12q15 0 25 -11t10 -24q0 -10 -5 -18l-69 -120h71l35 60q9 15 18.5 34.5t20 37 t22.5 29.5t24 12q16 0 26 -10.5t10 -24.5q0 -10 -5 -18l-69 -120h65q15 0 25.5 -10t10.5 -25q0 -14 -10.5 -24.5t-25.5 -10.5h-106l-42 -74h148q15 0 25.5 -10.5t10.5 -24.5t-10.5 -24.5t-25.5 -10.5h-189l-90 -155q-11 -18 -30 -18q-16 0 -26 10.5t-10 24.5q0 8 5 18 l69 120h-71l-89 -155q-11 -18 -31 -18q-15 0 -25 10.5t-10 24.5q0 8 5 18zM265 317l-42 -74h71l43 74h-72z" horiz-adv-x="669" unicode="#"/>
<glyph glyph-name="dollar" d="M417 468q-22 22 -53 22h-71v-179q32 -5 70.5 -12.5t72.5 -24.5t56.5 -47.5t22.5 -81.5q0 -30 -11.5 -56.5t-31 -46.5t-46.5 -32t-57 -12h-76v-17q0 -14 -10.5 -24.5t-24.5 -10.5q-15 0 -25.5 10.5t-10.5 24.5v17h-75q-54 0 -95 35l-9 8q-43 43 -43 104v2q0 14 9.5 23.5 t26.5 9.5t23.5 -9.5t10.5 -23t8 -29t15 -26.5l3 -3q22 -20 51 -20h75v180q-35 4 -73.5 13t-70 27t-52 48.5t-20.5 77.5q0 28 10.5 54t29.5 46l3 4q21 20 48 31.5t56 11.5h69v17q0 15 10.5 25.5t25.5 10.5q14 0 24.5 -10.5t10.5 -25.5v-17h71q29 0 56 -11.5t47 -31.5l4 -4 q39 -42 39 -99v-1q0 -15 -10.5 -25.5t-24.5 -10.5q-18 0 -25 9t-10.5 22.5t-7 28.5t-13.5 27zM222 490h-69q-31 0 -53 -22l-2 -2q-20 -22 -20 -51q0 -44 40 -65.5t104 -28.5v169zM293 69h76q30 0 52.5 22.5t22.5 53.5q0 28 -15 44.5t-37.5 26.5t-49 14.5t-49.5 8.5v-170z " horiz-adv-x="616" unicode="$"/>
<glyph glyph-name="percent" d="M89 13q-10 -13 -28 -13q-14 0 -24 10.5t-10 24.5q0 9 10 24t23.5 32.5t28.5 34.5t25 29q81 99 160.5 196.5t161.5 194.5q11 13 27 13q14 0 24.5 -11t10.5 -25q0 -12 -8 -22q-101 -123 -200.5 -244.5t-200.5 -243.5zM106 559q22 0 41 -8.5t33.5 -23t23 -33.5t8.5 -41 t-8.5 -41.5t-23 -34t-33.5 -23t-41 -8.5t-41 8.5t-33.5 23t-23 34t-8.5 41.5t8.5 41t23 33.5t33.5 23t41 8.5zM133 479q-11 12 -27 12q-14 0 -26 -11t-12 -27q0 -17 11.5 -27.5t26.5 -10.5q16 0 27 11t11 27q0 15 -11 26zM418 212q21 0 40 -8.5t34 -22.5t23.5 -34t8.5 -42 t-8.5 -41t-23 -33.5t-33.5 -23t-41 -8.5t-41 8.5t-33.5 23t-23 33.5t-8.5 41t8.5 42t23.5 34t34 22.5t40 8.5zM445 132q-11 11 -27 11t-27 -11t-11 -27t11.5 -27t26.5 -11t26.5 11t11.5 27t-11 27z" horiz-adv-x="627" unicode="%"/>
<glyph glyph-name="ampersand" d="M501 376q14 0 24.5 -10t10.5 -25q0 -17 -10 -26t-25 -9h-26v-179q0 -26 -10 -49.5t-27.5 -40.5t-40.5 -27t-49 -10h-160q-39 0 -73 15t-59.5 40.5t-40.5 59.5t-15 73q0 50 24 93t68 69q-15 17 -22.5 38t-7.5 44q0 50 33 86l4 4q17 18 40.5 27.5t48.5 9.5h128 q14 0 24.5 -9t10.5 -26q0 -15 -10 -25t-25 -10h-128q-24 0 -39 -17l-2 -2q-15 -15 -15 -38t16.5 -38.5t38.5 -17.5h314zM404 306h-217q-24 -1 -45 -10.5t-37 -25.5t-25.5 -37t-9.5 -45t9.5 -45.5t25.5 -37.5t37.5 -25.5t45.5 -9.5h160q23 0 39.5 17t16.5 40v179z" horiz-adv-x="624" unicode="&amp;"/>
<glyph glyph-name="quotesingle" d="M-1 525v36v10q0 14 7.5 25t23.5 11q15 0 23 -11t8 -25v-10v-36v-10q0 -14 -8 -25t-23 -11q-16 0 -23.5 11t-7.5 25v10z" horiz-adv-x="211" unicode="&apos;"/>
<glyph glyph-name="parenleft" d="M94 466q-23 -21 -23 -53v-403q0 -32 23 -53l2 -2q12 -11 26.5 -14.5t28 -7.5t22.5 -10.5t9 -23.5q0 -15 -10 -25.5t-25 -10.5h-1q-28 0 -53.5 10.5t-45.5 29.5l-4 3q-43 43 -43 104v403q0 61 43 104l4 3q20 19 45.5 29.5t53.5 10.5h1q15 0 25 -10.5t10 -25.5 q0 -18 -9 -25t-22.5 -10.5t-28.5 -7t-26 -13.5z" horiz-adv-x="277" unicode="("/>
<glyph glyph-name="parenright" d="M86 468q-11 10 -26 13.5t-28.5 7t-22.5 10.5t-9 25q0 15 10 25.5t25 10.5h1q28 0 53.5 -10.5t45.5 -29.5l4 -3q43 -43 43 -104v-403q0 -61 -43 -104l-4 -3q-20 -19 -45.5 -29.5t-53.5 -10.5h-1q-15 0 -25 10.5t-10 25.5q0 17 9 23.5t22.5 10.5t28 7.5t26.5 14.5l2 2 q23 21 23 53v403q0 32 -23 53z" horiz-adv-x="280" unicode=")"/>
<glyph glyph-name="asterisk" d="M85 392l-19 -19q-8 -8 -17 -8q-10 0 -17 7.5t-7 17.5t7 17l19 19h-27q-10 0 -17 7t-7 17q0 11 7 17.5t17 6.5h27l-19 19q-7 7 -7 17q0 11 6.5 18t17.5 7q8 0 17 -7l19 -19v27q0 10 7 17t17 7q11 0 18 -7t7 -17v-27l19 19q7 7 16 7q11 0 18 -7t7 -18q0 -8 -7 -17l-19 -19 h27q10 0 17 -6.5t7 -17.5q0 -10 -7 -17t-17 -7h-27l19 -19q7 -9 7 -17q0 -11 -7.5 -18t-17.5 -7t-16 8l-19 19v-27q0 -10 -7 -17t-18 -7q-10 0 -17 7t-7 17v27z" horiz-adv-x="331" unicode="*"/>
<glyph glyph-name="plus" d="M189 189h-154q-14 0 -24.5 10.5t-10.5 24.5q0 15 10.5 25t24.5 10h154v155q0 14 10.5 24.5t24.5 10.5q15 0 25 -10.5t10 -24.5v-155h155q14 0 24.5 -10t10.5 -25q0 -14 -10.5 -24.5t-24.5 -10.5h-155v-154q0 -14 -10 -24.5t-25 -10.5q-14 0 -24.5 10.5t-10.5 24.5v154z " horiz-adv-x="557" unicode="+"/>
<glyph glyph-name="comma" d="M62 -38q-7 -11 -19.5 -14.5t-23.5 3.5t-14 19.5t3 23.5q13 22 20 34.5t11 19t5 8.5t2 3q7 11 19.5 14.5t23.5 -2.5q11 -7 14.5 -19.5t-3.5 -23.5z" horiz-adv-x="177" unicode=","/>
<glyph glyph-name="hyphen" d="M35 189q-14 0 -24.5 10.5t-10.5 24.5q0 15 10.5 25t24.5 10h379q14 0 24.5 -10t10.5 -25q0 -14 -10.5 -24.5t-24.5 -10.5h-379z" horiz-adv-x="499" unicode="-"/>
<glyph glyph-name="period" d="M47 94q20 0 33.5 -13.5t13.5 -33.5t-13.5 -33.5t-33.5 -13.5t-33.5 13.5t-13.5 33.5t13.5 33.5t33.5 13.5z" horiz-adv-x="189" unicode="."/>
<glyph glyph-name="slash" d="M70 18q-8 -13 -22 -17t-26 4q-13 7 -17 21t4 27q70 122 141.5 243.5t140.5 245.5q8 13 22 17t26 -4q13 -8 17 -21.5t-4 -26.5z" horiz-adv-x="445" unicode="/"/>
<glyph glyph-name="zero" d="M239 559q49 0 92.5 -19t76 -51.5t51.5 -76t19 -92.5v-81q0 -49 -19 -92.5t-51.5 -76t-76 -51.5t-92.5 -19t-92.5 19t-76 51.5t-51.5 76t-19 92.5v81q0 49 19 92.5t51.5 76t76 51.5t92.5 19zM71 239q0 -35 13 -65.5t36 -53.5t53.5 -36t65.5 -13q34 0 64.5 13t53.5 35.5 t36.5 53.5t13.5 66v81q0 35 -13.5 65.5t-36.5 53.5t-53.5 36.5t-64.5 13.5q-35 0 -65.5 -13.5t-53 -36.5t-36 -54t-13.5 -65v-81z" horiz-adv-x="588" unicode="0"/>
<glyph glyph-name="one" d="M29 489h-46q-14 0 -24.5 10t-10.5 25q0 12 5.5 19t13.5 10.5t18.5 4.5t20.5 1h11h13h12q10 0 20.5 -1t18.5 -4.5t13.5 -10.5t5.5 -19v-489q0 -14 -10.5 -24.5t-24.5 -10.5q-15 0 -25.5 10.5t-10.5 24.5v454z" horiz-adv-x="195" unicode="1"/>
<glyph glyph-name="two" d="M0 24v122q0 44 19 73t52 48t77.5 29.5t95.5 17.5q27 3 60.5 7.5t62.5 14.5t48.5 28.5t19.5 49.5q0 14 -5.5 27t-14.5 24l-2 2q-22 22 -53 22h-204q-31 0 -53 -22l-2 -2q-11 -11 -14.5 -26t-7 -28.5t-10 -22.5t-23.5 -9q-15 0 -25.5 10.5t-10.5 24.5v1q0 57 39 99l4 3 q20 20 47 31.5t56 11.5h204q29 0 55.5 -11.5t47.5 -31.5l3 -3q39 -42 39 -100q0 -43 -18 -72t-50 -48.5t-76.5 -30.5t-97.5 -18q-35 0 -69.5 -6t-61.5 -18.5t-44 -31t-17 -43.5v-75h394q15 0 25.5 -10.5t10.5 -25.5q0 -14 -10.5 -24.5t-25.5 -10.5h-441q-13 0 -18.5 6.5 t-5.5 17.5z" horiz-adv-x="585" unicode="2"/>
<glyph glyph-name="three" d="M275 376q23 2 39 17.5t16 38.5q0 22 -14 38l-2 2q-17 17 -40 17h-239q-14 0 -24.5 10t-10.5 25t9.5 25t23.5 10h241q53 0 90 -37l3 -4q34 -36 34 -86q0 -46 -31 -82q44 -25 68.5 -69t24.5 -93q0 -38 -15 -72.5t-41 -60t-60 -40.5t-73 -15h-239q-14 0 -24.5 10.5 t-10.5 24.5q0 15 10.5 25.5t24.5 10.5h239q24 0 45.5 9t37.5 25t25.5 37.5t9.5 45.5t-9.5 45.5t-25 37.5t-36.5 25.5t-45 9.5h-241q-14 0 -24.5 10.5t-10.5 24.5q0 15 10.5 25t24.5 10h228h12z" horiz-adv-x="564" unicode="3"/>
<glyph glyph-name="four" d="M321 183h-279q-19 0 -37 9l-9 6l1 1q-13 8 -20.5 24t-7.5 33q0 18 10 36l145 251q9 17 29 17q16 0 25 -10.5t9 -23.5q0 -10 -4 -17l-145 -251l-1 -2q0 -2 2 -4l1 -1h2h279v221q0 14 10 24.5t25 10.5q14 0 24.5 -10.5t10.5 -24.5v-437q0 -14 -10.5 -24.5t-24.5 -10.5 q-15 0 -25 10.5t-10 24.5v148z" horiz-adv-x="500" unicode="4"/>
<glyph glyph-name="five" d="M0 35q0 15 10.5 25.5t24.5 10.5h248q24 0 45.5 9t37 25t25 37.5t9.5 45.5t-9.5 45.5t-25 37t-36.5 25t-45 10.5h-249q-14 0 -24.5 10.5t-10.5 24.5v183q0 14 10.5 24.5t24.5 10.5h302q15 0 25.5 -10.5t10.5 -24.5q0 -15 -10.5 -25t-25.5 -10h-266v-113h212q38 0 72 -15 t60 -40.5t41 -59.5t15 -73t-15 -73.5t-40.5 -60t-60 -40t-72.5 -14.5h-248q-14 0 -24.5 9.5t-10.5 25.5z" horiz-adv-x="564" unicode="5"/>
<glyph glyph-name="six" d="M376 524q0 -15 -10 -25t-25 -10l-45 -1h-11q-33 0 -64.5 -10t-58.5 -28.5t-47.5 -45t-32.5 -60.5q47 32 106 32h93q39 0 73 -15t59.5 -40.5t40.5 -59.5t15 -73t-15 -73t-40.5 -59.5t-59.5 -40.5t-73 -15h-93q-39 0 -73 15t-59.5 40.5t-40.5 59.5t-15 73v87 q0 58 22.5 109.5t61.5 90.5t90.5 61.5t110.5 22.5h57q13 0 23.5 -10t10.5 -25zM186 306q-24 -1 -44.5 -10.5t-36.5 -25t-25 -37t-9 -45.5t9 -45.5t25 -37.5t37.5 -25t45.5 -9h93q25 0 46.5 9.5t37.5 25.5t25 37t9 45t-9.5 45.5t-25.5 37.5t-37.5 25.5t-45.5 9.5h-95z" horiz-adv-x="549" unicode="6"/>
<glyph glyph-name="seven" d="M362 544q13 -9 20.5 -24.5t7.5 -32.5q0 -18 -10 -36l-229 -396l-22 -38q-9 -17 -29 -17q-15 0 -25 10.5t-10 23.5q0 9 5 17l251 434v4t-2 2v1h-2h-345q-14 0 -24 10t-10 24t10 24t24 10h345q19 0 36 -9l9 -6v-1z" horiz-adv-x="428" unicode="7"/>
<glyph glyph-name="eight" d="M92 350q-15 17 -22.5 38t-7.5 44q0 50 33 86l4 4q17 18 40.5 27.5t48.5 9.5h134q52 0 89 -37l4 -4q33 -36 33 -86q0 -23 -7.5 -44t-22.5 -38q43 -26 67.5 -69t24.5 -93q0 -39 -15 -73.5t-40.5 -60t-60 -40t-72.5 -14.5h-134q-39 0 -73 15t-59.5 40.5t-40.5 59.5t-15 73 q0 50 24 93t68 69zM323 376q22 0 38.5 17t16.5 39q0 23 -15 38l-2 2q-15 17 -39 17h-134q-24 0 -39 -17l-2 -2q-15 -15 -15 -38t16.5 -38.5t38.5 -17.5h123h13zM187 306q-24 0 -45 -9.5t-36.5 -25.5t-25 -37.5t-9.5 -45.5t9 -45.5t25 -37.5t37.5 -25t45.5 -9h134 q24 0 45.5 9t37 25t25 37.5t9.5 45.5t-9.5 45.5t-25 37.5t-36.5 25.5t-45 9.5h-1h-135z" horiz-adv-x="603" unicode="8"/>
<glyph glyph-name="nine" d="M93 35q0 15 10.5 25.5t24.5 10.5h57q34 0 65.5 10.5t58.5 29.5t47 45.5t31 58.5q-47 -32 -106 -32h-93q-39 0 -73 14.5t-59.5 40t-40.5 60t-15 73.5t15 73t40.5 59.5t59.5 40.5t73 15h93q39 0 73 -15t59.5 -40.5t40.5 -60t15 -72.5v-86q0 -58 -22 -110t-60.5 -91 t-90.5 -61.5t-111 -22.5h-63q-13 0 -21 11.5t-8 23.5zM283 253q24 1 45.5 10.5t37 26t24.5 37.5t9 44t-9.5 44.5t-25.5 38t-37.5 26t-45.5 9.5h-93q-24 0 -45.5 -9.5t-37 -25.5t-25 -37.5t-9.5 -45.5t9.5 -45.5t25 -37.5t37 -25.5t45.5 -9.5h95z" horiz-adv-x="580" unicode="9"/>
<glyph glyph-name="colon" d="M47 423q20 0 33.5 -13.5t13.5 -33.5t-13.5 -33.5t-33.5 -13.5t-33.5 13.5t-13.5 33.5t13.5 33.5t33.5 13.5zM47 94q20 0 33.5 -13.5t13.5 -33.5t-13.5 -33.5t-33.5 -13.5t-33.5 13.5t-13.5 33.5t13.5 33.5t33.5 13.5z" horiz-adv-x="221" unicode=":"/>
<glyph glyph-name="semicolon" d="M57 423q20 0 33.5 -13.5t13.5 -33.5t-13.5 -33.5t-33.5 -13.5t-33.5 13.5t-13.5 33.5t13.5 33.5t33.5 13.5zM62 -38q-7 -11 -19.5 -14.5t-23.5 3.5t-14 19.5t3 23.5q13 22 20 34.5t11 19t5 8.5t2 3q7 11 19.5 14.5t23.5 -2.5q11 -7 14.5 -19.5t-3.5 -23.5z" horiz-adv-x="232" unicode=";"/>
<glyph glyph-name="less" d="M378 502q6 3 13 3q13 0 23 -10t10 -24q0 -10 -5 -18.5t-15 -12.5l-319 -133q-17 -7 -17 -26t17 -25l319 -134q10 -4 15 -12.5t5 -18.5q0 -15 -10 -24.5t-23 -9.5q-7 0 -13 3l-319 133q-27 11 -43 35t-16 53t16 53t43 35z" horiz-adv-x="523" unicode="&lt;"/>
<glyph glyph-name="equal" d="M32 249q-13 0 -22.5 9t-9.5 23t9.5 23.5t22.5 9.5h251q14 0 23.5 -9.5t9.5 -23.5t-9.5 -23t-23.5 -9h-251zM32 135q-13 0 -22.5 9.5t-9.5 23.5t9.5 23t22.5 9h251q14 0 23.5 -9t9.5 -23t-9.5 -23.5t-23.5 -9.5h-251z" horiz-adv-x="549" unicode="="/>
<glyph glyph-name="greater" d="M365 369q27 -11 43 -35t16 -53t-16 -53t-43 -35l-319 -133q-6 -3 -13 -3q-13 0 -23 9.5t-10 24.5q0 10 5 18.5t15 12.5l319 134q17 6 17 25t-17 26l-319 133q-10 4 -15 12.5t-5 18.5q0 14 10 24t23 10q7 0 13 -3z" horiz-adv-x="520" unicode="&gt;"/>
<glyph glyph-name="question" d="M183 83q17 0 29.5 -12t12.5 -29t-12.5 -29.5t-29.5 -12.5t-29 12.5t-12 29.5t12 29t29 12zM182 315q26 4 57.5 8t58.5 13.5t45.5 27.5t18.5 50q0 29 -20 51l-2 2q-22 22 -53 22h-165q-31 0 -53 -22l-2 -2q-11 -11 -14 -26t-6.5 -28.5t-10.5 -22.5t-25 -9 q-14 0 -24.5 10.5t-10.5 24.5v1q0 57 39 99l4 3q20 20 47 31.5t56 11.5h165q29 0 56 -11.5t47 -31.5l4 -3q39 -42 39 -100q0 -41 -17.5 -69.5t-47 -48t-68.5 -30.5t-81 -17v-108q0 -14 -10.5 -24.5t-25.5 -10.5q-16 0 -23.5 8.5t-10 21t-2 26.5t0.5 26v12v21v12 q0 12 -0.5 26.5t2 26.5t9.5 20.5t23 8.5z" horiz-adv-x="539" unicode="?"/>
<glyph glyph-name="at" d="M500 420q-14 32 -41.5 50.5t-59.5 18.5h-160q-35 0 -65.5 -13.5t-53.5 -36.5t-36.5 -54t-13.5 -65v-81q0 -35 13.5 -65.5t36.5 -53.5t53.5 -36.5t65.5 -13.5h282q15 0 25 -10t10 -25q0 -14 -10 -24.5t-25 -10.5h-282q-49 0 -92.5 19t-76 51.5t-51.5 76t-19 92.5v81 q0 47 17.5 89.5t48.5 74.5t72.5 52t88.5 23h172q37 0 70 -14.5t57.5 -39t38.5 -57t14 -68.5v-70q0 -36 -14.5 -69t-39 -57.5t-57 -39t-69.5 -14.5h-101q-30 0 -56.5 11.5t-46 31t-31 46t-11.5 56.5t11.5 56.5t31 46t46 31t56.5 11.5h202zM376 201h23q22 0 42 8.5t35 23.5 t23.5 35t8.5 42v39h-210q-31 0 -52.5 -21.5t-21.5 -52.5t21.5 -52.5t52.5 -21.5h78z" horiz-adv-x="694" unicode="@"/>
<glyph glyph-name="A" d="M220 536l8 5q27 18 60 18q32 0 59 -18l2 -1q24 -17 37 -47l187 -446q2 -3 2 -6.5v-6.5q0 -13 -9.5 -23.5t-24.5 -10.5q-10 0 -18.5 5.5t-12.5 15.5l-50 119h-345l-49 -119q-4 -10 -13 -15.5t-19 -5.5q-14 0 -24 10.5t-10 23.5q0 7 3 13l186 446q11 26 31 42v1zM432 208 l-109 259q-3 10 -13 17l-1 1q-9 6 -21 6t-22 -6l-2 -2q-8 -6 -12 -16l-108 -259h288z" horiz-adv-x="655" unicode="A"/>
<glyph glyph-name="B" d="M34 41q-34 36 -34 86v305q0 50 34 86l3 4q37 37 90 37h179q53 0 90 -37l3 -4q34 -36 34 -86q0 -46 -31 -82q44 -25 68.5 -69t24.5 -93q0 -38 -15 -72.5t-41 -60t-60 -40.5t-73 -15h-179q-53 0 -90 37l-3 3v1zM71 306v-179q0 -22 14 -38l2 -2q15 -17 40 -17h179 q24 0 45.5 9.5t37.5 25.5t25.5 37.5t9.5 45.5t-9.5 45t-25 37.5t-36.5 26t-45 9.5h-237zM307 376q23 2 39 17.5t16 38.5q0 22 -14 38l-2 2q-17 17 -40 17h-179q-25 0 -40 -17l-2 -2q-14 -16 -14 -38v-56h224h12z" horiz-adv-x="580" unicode="B"/>
<glyph glyph-name="C" d="M420 559q15 0 25 -10.5t10 -24.5q0 -15 -10.5 -25t-24.5 -10h-181q-35 0 -65.5 -13.5t-53 -36.5t-36 -54t-13.5 -65v-81q0 -35 13.5 -65.5t36 -53.5t53 -36.5t65.5 -13.5h181q14 0 24.5 -10t10.5 -25q0 -14 -10 -24.5t-25 -10.5h-181q-49 0 -92.5 19t-76 51.5t-51.5 76 t-19 92.5v81q0 49 19 92.5t51.5 76t76 51.5t92.5 19h181z" horiz-adv-x="542" unicode="C"/>
<glyph glyph-name="D" d="M34 519l3 3q37 37 90 37h128q48 0 91.5 -19t76 -51.5t51.5 -76t19 -92.5v-81q0 -49 -19 -92.5t-51.5 -76t-76 -51.5t-91.5 -19h-128q-53 0 -90 37l-3 4q-34 36 -34 86v305q0 50 34 86v1zM85 470q-14 -16 -14 -38v-305q0 -22 14 -38l2 -2q15 -17 40 -17h128q33 0 64 13 t54 37h1q23 23 36 54t13 65v81q0 34 -13 65t-36 54h-1q-23 24 -54 37t-64 13h-128q-25 0 -40 -17z" horiz-adv-x="573" unicode="D"/>
<glyph glyph-name="E" d="M71 315h316q15 0 25 -10.5t10 -25.5q0 -14 -10 -24.5t-25 -10.5h-316v-5q0 -35 13.5 -65.5t36 -53.5t53 -36.5t65.5 -13.5h181q14 0 24.5 -10t10.5 -25q0 -14 -10 -24.5t-25 -10.5h-181q-49 0 -92.5 19t-76 51.5t-51.5 76t-19 92.5v81q0 49 19 92.5t51.5 76t76 51.5 t92.5 19h181q15 0 25 -10.5t10 -24.5q0 -15 -10.5 -25t-24.5 -10h-181q-35 0 -65.5 -13.5t-53 -36.5t-36 -54t-13.5 -65v-5z" horiz-adv-x="542" unicode="E"/>
<glyph glyph-name="F" d="M0 309v11q0 49 19 92.5t51.5 76t76 51.5t92.5 19h90q15 0 25.5 -10.5t10.5 -24.5q0 -15 -10.5 -25t-25.5 -10h-90q-35 0 -65.5 -13.5t-53 -36.5t-36 -54t-13.5 -65v-110h258q15 0 25.5 -10.5t10.5 -24.5q0 -15 -10.5 -25.5t-25.5 -10.5h-258v-104q0 -14 -10.5 -24.5 t-25.5 -10.5t-25 11.5t-10 23.5v274z" horiz-adv-x="464" unicode="F"/>
<glyph glyph-name="G" d="M501 524q0 -15 -10.5 -25t-24.5 -10h-227q-35 0 -65.5 -13.5t-53 -36.5t-36 -54t-13.5 -65v-81q0 -35 13.5 -65.5t36 -53.5t53 -36.5t65.5 -13.5h118q24 0 45 9.5t37.5 25.5t26 37.5t9.5 45.5t-9.5 45.5t-26 37.5t-37.5 25.5t-45 9.5h-118q-14 0 -24.5 10.5t-10.5 24.5 q0 16 9.5 25.5t23.5 9.5h120q38 0 72.5 -15t60 -40.5t40.5 -59.5t15 -73t-15 -73t-40.5 -59.5t-59.5 -40.5t-73 -15h-118q-49 0 -92.5 19t-76 51.5t-51.5 76t-19 92.5v81q0 49 19 92.5t51.5 76t76 51.5t92.5 19h227q14 0 24.5 -10t10.5 -25z" horiz-adv-x="625" unicode="G"/>
<glyph glyph-name="H" d="M70 210h338v314q0 14 10.5 24.5t24.5 10.5q15 0 25.5 -10.5t10.5 -24.5v-489q0 -14 -10.5 -24.5t-25.5 -10.5q-14 0 -24.5 10.5t-10.5 24.5v104h-338v-104q0 -14 -10 -24.5t-25 -10.5q-14 0 -24.5 10.5t-10.5 24.5v489q0 14 10.5 24.5t24.5 10.5q15 0 25 -10.5t10 -24.5 v-314z" horiz-adv-x="588" unicode="H"/>
<glyph glyph-name="I" d="M70 35q0 -14 -10 -24.5t-25 -10.5q-14 0 -24.5 10.5t-10.5 24.5v489q0 14 10.5 24.5t24.5 10.5q15 0 25 -10.5t10 -24.5v-489z" horiz-adv-x="165" unicode="I"/>
<glyph glyph-name="J" d="M179 201v323q0 14 10.5 24.5t24.5 10.5q15 0 25.5 -10.5t10.5 -24.5v-344q0 -37 -14.5 -70t-39 -57.5t-57.5 -38.5t-69 -14h-35q-14 0 -24.5 10.5t-10.5 24.5q0 15 10.5 25.5t24.5 10.5h35q22 0 41.5 8.5t34.5 23t24 34.5t9 43v21z" horiz-adv-x="351" unicode="J"/>
<glyph glyph-name="K" d="M318 281q27 -16 48.5 -38.5t36.5 -49.5t23 -56.5t8 -60.5v-41q0 -14 -10 -24.5t-25 -10.5q-14 0 -24.5 10.5t-10.5 24.5v41q0 34 -13 64.5t-36 54.5h-1q-23 24 -54 36.5t-64 12.5h-126v-209q0 -14 -10 -24.5t-25 -10.5q-14 0 -24.5 10.5t-10.5 24.5v489q0 14 10.5 24.5 t24.5 10.5q15 0 25 -10.5t10 -24.5v-209h120q34 0 65 13.5t53.5 36t36 53t13.5 65.5v41q0 14 10.5 24.5t25.5 10.5q14 0 24.5 -10.5t10.5 -24.5v-41q0 -63 -28.5 -113.5t-82.5 -88.5z" horiz-adv-x="531" unicode="K"/>
<glyph glyph-name="L" d="M71 201v-21q0 -23 8.5 -42.5t23.5 -34.5t34.5 -23.5t42.5 -8.5l46 -1h108q14 0 23.5 -9.5t9.5 -25.5q0 -14 -10.5 -24.5t-25.5 -10.5h-151q-37 0 -69.5 14.5t-57 39t-39 57t-14.5 69.5v344q0 14 10.5 24.5t24.5 10.5q15 0 25.5 -10.5t10.5 -24.5v-323z" horiz-adv-x="417" unicode="L"/>
<glyph glyph-name="M" d="M352 75l165 442q7 18 23 29.5t34 11.5q26 0 44 -16t21 -39l65 -466v-5q0 -14 -10 -24t-25 -10q-13 0 -21.5 8.5t-10.5 21.5l-63 447l-163 -435q-7 -19 -22.5 -30t-36.5 -11q-22 0 -37 12t-22 29l-163 435l-62 -447q-2 -13 -11.5 -21.5t-22.5 -8.5q-14 0 -24 10.5 t-10 24.5v4l65 466q4 23 21.5 39t43.5 16q20 0 35 -12t22 -29z" horiz-adv-x="802" unicode="M"/>
<glyph glyph-name="N" d="M472 74v449q0 14 10.5 24t24.5 10t24 -10t10 -24v-458q0 -26 -18.5 -45.5t-45.5 -19.5q-15 0 -29.5 6.5t-23.5 18.5l-356 460v-449q0 -14 -10 -24t-24 -10t-24 10t-10 24v458q0 26 18 45.5t47 19.5q15 0 28.5 -7t23.5 -18z" horiz-adv-x="655" unicode="N"/>
<glyph glyph-name="O" d="M339 559q49 0 92.5 -19t76 -51.5t51.5 -76t19 -92.5v-81q0 -49 -19 -92.5t-51.5 -76t-76 -51.5t-92.5 -19h-100q-49 0 -92.5 19t-76 51.5t-51.5 76t-19 92.5v81q0 49 19 92.5t51.5 76t76 51.5t92.5 19h100zM71 239q0 -35 13.5 -65.5t36 -53.5t53 -36.5t65.5 -13.5h100 q34 0 65 13.5t54 36.5t36.5 53.5t13.5 65.5v81q0 34 -13.5 65t-36.5 54t-54 36.5t-65 13.5h-100q-35 0 -65.5 -13.5t-53 -36.5t-36 -54t-13.5 -65v-81z" horiz-adv-x="687" unicode="O"/>
<glyph glyph-name="P" d="M295 183h-224v-148q0 -14 -10.5 -24.5t-25.5 -10.5q-16 0 -25.5 11t-9.5 25v396q0 50 34 86l3 4q37 37 90 37h179q39 0 73 -15t60 -40.5t41 -60t15 -72.5q0 -39 -15 -73t-41 -59.5t-60.5 -40.5t-72.5 -15h-11zM85 470q-14 -16 -14 -38v-179h237q24 1 45 10.5t36.5 25 t25 37t9.5 45.5t-9.5 45.5t-25.5 37.5t-37.5 25.5t-45.5 9.5h-179q-25 0 -40 -17z" horiz-adv-x="562" unicode="P"/>
<glyph glyph-name="Q" d="M562 59q10 -10 10 -25q0 -14 -10.5 -24.5t-24.5 -10.5t-25 11l-34 34q-62 -44 -139 -44h-100q-49 0 -92.5 19t-76 51.5t-51.5 76t-19 92.5v81q0 49 19 92.5t51.5 76t76 51.5t92.5 19h100q49 0 92.5 -19t76 -51.5t51.5 -76t19 -92.5v-81q0 -82 -50 -146zM414 108l-147 147 q-11 11 -11 25t10.5 24.5t24.5 10.5q15 0 25 -10l162 -162q30 44 30 96v81q0 34 -13.5 65t-36.5 54t-54 36.5t-65 13.5h-100q-35 0 -65.5 -13.5t-53 -36.5t-36 -54t-13.5 -65v-81q0 -35 13.5 -65.5t36 -53.5t53 -36.5t65.5 -13.5h100q46 0 88 25z" horiz-adv-x="694" unicode="Q"/>
<glyph glyph-name="R" d="M468 72q8 -8 15 -15.5t7 -21.5t-10.5 -25t-25.5 -11q-12 0 -21 9l-175 175h-187v-148q0 -14 -10.5 -24.5t-25.5 -10.5q-17 0 -26 11t-9 25v396q0 50 34 86l3 4q37 37 90 37h179q39 0 73 -15t60 -40.5t41 -60t15 -72.5q0 -32 -10.5 -61.5t-29.5 -54t-45.5 -42.5t-57.5 -25 zM85 470q-14 -16 -14 -38v-179h237q24 1 45 10.5t36.5 25t25 37t9.5 45.5t-9.5 45.5t-25.5 37.5t-37.5 25.5t-45.5 9.5h-179q-25 0 -40 -17z" horiz-adv-x="590" unicode="R"/>
<glyph glyph-name="S" d="M414 467q-22 22 -53 22h-209q-31 0 -53 -22l-2 -2q-20 -22 -20 -51q0 -33 21.5 -52t52 -28.5t63 -13t54.5 -6.5q36 -5 78.5 -12t79.5 -24.5t61.5 -48.5t24.5 -83q0 -30 -11.5 -56.5t-31.5 -46.5t-46.5 -31.5t-56.5 -11.5h-220q-55 0 -95 35l-8 8q-20 20 -31.5 46 t-11.5 53q0 17 10 28t25 11q18 0 25 -9.5t10.5 -23t7.5 -29t15 -26.5l2 -3q22 -19 51 -19h220q31 0 53 22t22 53q0 33 -19.5 50t-48.5 25.5t-63 12.5t-62 11q-35 5 -77.5 12.5t-79 24.5t-61 48t-24.5 84q0 58 40 100l3 3q20 20 47 31.5t56 11.5h209q29 0 56 -11.5t47 -31.5 l4 -3q39 -42 39 -99v-1q0 -14 -10.5 -24.5t-24.5 -10.5q-18 0 -25 9t-10.5 22.5t-7 28.5t-13.5 26z" horiz-adv-x="621" unicode="S"/>
<glyph glyph-name="T" d="M211 489h-176q-14 0 -24.5 10t-10.5 25q0 14 10.5 24.5t24.5 10.5h423q15 0 25 -10.5t10 -24.5q0 -15 -10.5 -25t-24.5 -10h-176v-454q0 -14 -10.5 -24.5t-24.5 -10.5q-15 0 -25.5 10.5t-10.5 24.5v454z" horiz-adv-x="500" unicode="T"/>
<glyph glyph-name="U" d="M35 559q15 0 25.5 -10.5t10.5 -24.5v-285q0 -35 13.5 -65.5t36 -53.5t53 -36.5t65.5 -13.5h44q33 0 63.5 13t54 36t37 54t13.5 66v286q0 14 9.5 24t25.5 10q15 0 25 -10.5t10 -24.5v-285q0 -48 -18 -91.5t-51 -77.5h-1q-33 -34 -76.5 -52t-91.5 -18h-44q-49 0 -92.5 19 t-76 51.5t-51.5 76t-19 92.5v287q0 14 10 23.5t25 9.5z" horiz-adv-x="615" unicode="U"/>
<glyph glyph-name="V" d="M266 74q10 -6 22 -6t21 6l1 1q10 7 13 17l187 446q4 10 12.5 15.5t18.5 5.5q15 0 24.5 -10.5t9.5 -23.5q0 -9 -2 -13l-187 -446q-13 -30 -37 -47l-2 -1q-27 -18 -59 -18q-33 0 -60 18l-8 6q-20 16 -31 42l-186 446q-3 6 -3 13q0 13 10 23.5t24 10.5q22 0 32 -21l186 -446 q4 -10 13 -17z" horiz-adv-x="678" unicode="V"/>
<glyph glyph-name="W" d="M130 81l163 436q6 17 21.5 29t37.5 12q20 0 36 -11.5t23 -29.5l163 -436l63 447q2 14 11 22t23 8t23.5 -10t9.5 -24v-5l-65 -466q-3 -23 -20.5 -38.5t-41.5 -15.5q-20 0 -36 10.5t-24 30.5l-165 441l-165 -441q-7 -18 -22 -29.5t-38 -11.5q-24 0 -41 15.5t-21 38.5 l-65 466v4q0 14 9.5 24.5t23.5 10.5q13 0 23 -8t12 -22z" horiz-adv-x="804" unicode="W"/>
<glyph glyph-name="X" d="M410 281q56 -33 86.5 -88t30.5 -117v-41q0 -14 -10.5 -24.5t-24.5 -10.5q-15 0 -25.5 10.5t-10.5 24.5v41q0 34 -13.5 65t-36 53.5t-53.5 36t-65 13.5h-49q-35 0 -66 -13.5t-53.5 -36.5t-35.5 -53.5t-13 -64.5v-41q0 -14 -10.5 -24.5t-25.5 -10.5q-14 0 -24.5 10.5 t-10.5 24.5v41q0 62 30.5 117t86.5 88q-54 36 -83 88t-29 114v41q0 14 10.5 24.5t25.5 10.5q14 0 24.5 -10.5t10.5 -24.5v-41q0 -35 13.5 -65.5t36 -53t53 -36t65.5 -13.5h39q34 0 64.5 13t53.5 36t36.5 53.5t13.5 65.5v41q0 14 10.5 24.5t24.5 10.5q15 0 25 -10.5t10 -24.5 v-41q0 -48 -18 -91.5t-51 -77.5h-1q-17 -17 -41 -33z" horiz-adv-x="632" unicode="X"/>
<glyph glyph-name="Y" d="M280 35q0 -14 -10.5 -24.5t-25.5 -10.5q-14 0 -24.5 10.5t-10.5 24.5v112q-80 11 -139 68v1q-34 34 -52 77t-18 91v140q0 14 10.5 24.5t24.5 10.5q15 0 25.5 -10.5t10.5 -24.5v-140q0 -34 13 -64.5t35.5 -53.5t53 -36.5t66.5 -13.5h11q34 0 65 13.5t53.5 36.5t36 53.5 t13.5 64.5v140q0 14 10.5 24.5t24.5 10.5q15 0 25.5 -10.5t10.5 -24.5v-140q0 -48 -18.5 -91t-51.5 -77v-1q-59 -57 -139 -68v-112z" horiz-adv-x="573" unicode="Y"/>
<glyph glyph-name="Z" d="M45 491q-14 0 -24 10t-10 24t10 24t24 10h359q22 0 41.5 -8.5t34.5 -23t23.5 -34.5t8.5 -43q0 -29 -15 -54t-38 -39l-365 -214q-8 -5 -14 -14t-6 -20q0 -17 11.5 -29t29.5 -12h370q14 0 24 -10t10 -24t-10 -24t-24 -10h-370q-23 0 -42.5 8.5t-34.5 23.5t-23.5 34.5 t-8.5 42.5q0 29 15 54t39 39l364 214q10 5 15 14t5 20q0 17 -11.5 29t-28.5 12h-359z" horiz-adv-x="625" unicode="Z"/>
<glyph glyph-name="bracketleft" d="M71 488v-554h86q15 0 25.5 -10.5t10.5 -24.5q0 -15 -10.5 -25.5t-25.5 -10.5h-121q-15 0 -25.5 10.5t-10.5 25.5v625q0 15 10.5 25.5t25.5 10.5h121q15 0 25.5 -10.5t10.5 -25.5t-10.5 -25.5t-25.5 -10.5h-86z" horiz-adv-x="293" unicode="["/>
<glyph glyph-name="backslash" d="M70 18q-8 -13 -22 -17t-26 4q-13 7 -17 21t4 27q70 122 141.5 243.5t140.5 245.5q8 13 22 17t26 -4q13 -8 17 -21.5t-4 -26.5z" horiz-adv-x="453" unicode="\"/>
<glyph glyph-name="bracketright" d="M36 488q-15 0 -25.5 10.5t-10.5 25.5t10.5 25.5t25.5 10.5h121q15 0 25.5 -10.5t10.5 -25.5v-625q0 -15 -10.5 -25.5t-25.5 -10.5h-121q-15 0 -25.5 10.5t-10.5 25.5q0 14 10.5 24.5t25.5 10.5h86v554h-86z" horiz-adv-x="291" unicode="]"/>
<glyph glyph-name="asciicircum" d="M115 497l-62 -53q-9 -8 -21.5 -7.5t-20.5 10.5q-8 9 -7 21.5t10 20.5l69 59q13 12 32 12q18 0 32 -12l69 -59q10 -8 11 -20.5t-7 -21.5q-8 -10 -20.5 -10.5t-21.5 7.5z" horiz-adv-x="315" unicode="^"/>
<glyph glyph-name="underscore" d="M35 0q-14 0 -24.5 10.5t-10.5 24.5q0 15 10.5 25.5t24.5 10.5h493q14 0 24.5 -10.5t10.5 -25.5q0 -14 -10.5 -24.5t-24.5 -10.5h-493z" horiz-adv-x="661" unicode="_"/>
<glyph glyph-name="grave" d="M60 560q-6 11 -3 23.5t14 19.5q11 6 23.5 2.5t19.5 -14.5l2 -4t5 -8.5t11 -19t20 -34.5q7 -11 3.5 -23.5t-14.5 -18.5q-11 -7 -23.5 -3.5t-19.5 14.5z" horiz-adv-x="458" unicode="`"/>
<glyph glyph-name="a" d="M223 423q36 0 68 -14t56.5 -38.5t38.5 -56.5t14 -68v-69q0 -36 -14 -68.5t-38.5 -56.5t-56.5 -38t-68 -14h-100q-30 0 -56 11t-45.5 30.5t-30.5 45.5t-11 56t11 56t30.5 45.5t45.5 30.5t56 11h199q-11 30 -39 48.5t-60 18.5h-158q-15 0 -25 10.5t-10 24.5q0 16 8.5 25.5 t22.5 9.5h162zM200 70h23q22 0 41.5 9t34 23.5t23 34t8.5 40.5v39h-207q-30 0 -51.5 -21.5t-21.5 -51.5t21.5 -51.5t51.5 -21.5h77z" horiz-adv-x="503" unicode="a"/>
<glyph glyph-name="b" d="M71 386q48 37 109 37h69q36 0 69 -14t57.5 -38.5t39 -57.5t14.5 -70v-63q0 -37 -14.5 -70t-39 -57.5t-57.5 -38.5t-69 -14h-69q-37 0 -69.5 14.5t-57 39t-39 57t-14.5 69.5v344q0 14 10.5 24.5t24.5 10.5q15 0 25.5 -10.5t10.5 -24.5v-138zM71 203v-23q0 -23 8.5 -42.5 t23.5 -34.5t34.5 -23.5t42.5 -8.5h69q22 0 41.5 8.5t34.5 23t24 34.5t9 43v63q0 23 -9 43t-24 34.5t-34.5 23t-41.5 8.5h-69q-22 0 -41.5 -8.5t-34.5 -23t-24 -34t-9 -40.5v-43z" horiz-adv-x="511" unicode="b"/>
<glyph glyph-name="c" d="M356 388q0 -14 -10 -24.5t-24 -10.5h-145q-22 0 -41.5 -8.5t-34 -22.5t-23 -34t-8.5 -42v-69q0 -22 8.5 -41.5t23 -34t34 -23t41.5 -8.5h146q14 0 23.5 -10t9.5 -25q0 -14 -10 -24.5t-24 -10.5h-145q-36 0 -68.5 14t-56.5 38t-38 56.5t-14 68.5v69q0 36 14 68t38 56.5 t56.5 38.5t68.5 14h147q13 0 22.5 -10t9.5 -25z" horiz-adv-x="438" unicode="c"/>
<glyph glyph-name="d" d="M358 524q0 14 10.5 24.5t24.5 10.5q15 0 25.5 -10.5t10.5 -24.5v-344q0 -37 -14.5 -70t-39 -57.5t-57.5 -38.5t-69 -14h-69q-37 0 -69.5 14.5t-57 39t-39 57t-14.5 69.5v63q0 37 14.5 69.5t39 57t57 39t69.5 14.5h69q61 0 109 -37v138zM358 246q-1 22 -9.5 41t-23.5 33.5 t-34.5 23t-41.5 8.5h-69q-23 0 -42.5 -8.5t-34.5 -23.5t-23.5 -35t-8.5 -42v-63q0 -23 8.5 -42.5t23.5 -34.5t34.5 -23.5t42.5 -8.5h69q22 0 42 8.5t35 23.5t23.5 34.5t8.5 42.5v23v-6v49z" horiz-adv-x="536" unicode="d"/>
<glyph glyph-name="e" d="M77 138l2 -4q16 -32 41.5 -48t56.5 -16h166q14 0 24.5 -10.5t10.5 -24.5t-10.5 -24.5t-24.5 -10.5h-166q-37 0 -69 14t-56 38.5t-38 58.5t-14 74v61q0 36 14 68t38 56.5t56.5 38.5t68.5 14h69q36 0 68 -14t56.5 -38.5t38.5 -56.5t14 -68v-63q0 -19 -13 -32t-32 -13h-301z M353 208v38q0 22 -8.5 41.5t-23 34t-34 23t-41.5 8.5h-69q-22 0 -41.5 -8.5t-34 -23t-23 -34t-8.5 -41.5v-38h283z" unicode="e"/>
<glyph glyph-name="f" d="M0 356v23q0 37 14.5 69.5t39 57t57 39t69.5 14.5h34q15 0 25.5 -10.5t10.5 -24.5q0 -15 -10.5 -25.5t-25.5 -10.5h-34q-23 0 -42.5 -8.5t-34.5 -23.5t-23.5 -35t-8.5 -42v-168h135q14 0 24.5 -10.5t10.5 -24.5q0 -15 -10.5 -25.5t-24.5 -10.5h-135v-105 q0 -14 -10.5 -24.5t-25.5 -10.5q-14 0 -24.5 10.5t-10.5 24.5v321z" horiz-adv-x="325" unicode="f"/>
<glyph glyph-name="g" d="M145 65q-32 6 -58.5 23t-45.5 40.5t-30 52.5t-11 61q0 37 14.5 70t39 57.5t57.5 39t70 14.5h69q37 0 70 -14.5t57.5 -39t39 -57.5t14.5 -70t-14.5 -69.5t-39.5 -57t-57.5 -39t-69.5 -14.5h-13q26 -4 49 -17t39.5 -32t26 -43.5t9.5 -52.5q0 -30 -11.5 -56.5t-31 -46 t-46 -31t-56.5 -11.5t-57 11.5t-46.5 31t-31 46t-11.5 56.5q0 15 10.5 25.5t25.5 10.5q14 0 24.5 -10.5t10.5 -25.5q0 -31 22 -52.5t53 -21.5t52.5 21.5t21.5 52.5q0 32 -21.5 53.5t-52.5 21.5t-51 21t-20 52zM181 352q-23 0 -43 -9t-35 -24t-23.5 -35t-8.5 -42 q0 -23 9 -42.5t24 -34.5t35 -23.5t42 -8.5h69q22 0 42 8.5t35 23.5t24 34.5t9 42.5q0 22 -8.5 42t-23.5 35t-35 24t-43 9h-69z" horiz-adv-x="521" unicode="g"/>
<glyph glyph-name="h" d="M71 386q48 37 109 37h32q34 0 65.5 -13t55.5 -35.5t39.5 -52.5t18.5 -65l1 -222q0 -14 -10.5 -24.5t-25.5 -10.5q-14 0 -24.5 10.5t-10.5 24.5v208q0 23 -9 43t-24 34.5t-34.5 23t-41.5 8.5h-32q-22 0 -41.5 -8.5t-34.5 -23t-24 -34t-9 -40.5v-211q0 -14 -10.5 -24.5 t-25.5 -10.5q-14 0 -24.5 10.5t-10.5 24.5v489q0 14 10.5 24.5t24.5 10.5q15 0 25.5 -10.5t10.5 -24.5v-138z" horiz-adv-x="490" unicode="h"/>
<glyph glyph-name="i" d="M39 536q17 0 28.5 -11.5t11.5 -28.5q0 -16 -11.5 -27.5t-28.5 -11.5q-16 0 -27.5 11.5t-11.5 27.5q0 17 11.5 28.5t27.5 11.5zM4 388q0 14 10.5 24.5t24.5 10.5q15 0 25.5 -10.5t10.5 -24.5v-353q0 -14 -10.5 -24.5t-25.5 -10.5q-14 0 -24.5 10.5t-10.5 24.5v353z" horiz-adv-x="162" unicode="i"/>
<glyph glyph-name="j" d="M69 536q17 0 28.5 -11.5t11.5 -28.5t-11.5 -28.5t-28.5 -11.5q-16 0 -27.5 11.5t-11.5 28.5t11.5 28.5t27.5 11.5zM34 11v376q0 15 10.5 25.5t25.5 10.5q14 0 24.5 -10.5t10.5 -25.5v-400q0 -37 -14.5 -70t-39 -57.5t-57.5 -39t-70 -14.5h-35q-15 0 -25.5 10.5 t-10.5 25.5q0 14 10.5 24.5t25.5 10.5h35q22 0 42 9t35 24t24 35t9 42v24z" horiz-adv-x="204" unicode="j"/>
<glyph glyph-name="k" d="M71 250h101q22 0 41.5 8.5t34.5 23t24 34.5t9 43v29q0 14 10.5 24.5t24.5 10.5q15 0 25.5 -10.5t10.5 -24.5v-29q0 -40 -18 -79.5t-51 -61.5q37 -25 57.5 -64.5t20.5 -83.5v-35q0 -14 -10.5 -24.5t-25.5 -10.5q-14 0 -24.5 10.5t-10.5 24.5v35q0 22 -8.5 41.5t-23 34.5 t-34.5 24t-43 9h-110v-144q0 -14 -10.5 -24.5t-25.5 -10.5q-14 0 -24.5 10.5t-10.5 24.5v489q0 14 10.5 24.5t24.5 10.5q15 0 25.5 -10.5t10.5 -24.5v-274z" horiz-adv-x="443" unicode="k"/>
<glyph glyph-name="l" d="M0 524q0 14 10.5 24.5t24.5 10.5q15 0 25.5 -10.5t10.5 -24.5v-489q0 -14 -10.5 -24.5t-25.5 -10.5q-14 0 -24.5 10.5t-10.5 24.5v489z" horiz-adv-x="160" unicode="l"/>
<glyph glyph-name="m" d="M0 259q3 34 18 64t39 52.5t54.5 35t65.5 12.5h32q44 0 79 -19t64 -53q24 34 62 53t80 19h32q34 0 65 -13t54.5 -35t39 -52t18.5 -64v-224q0 -14 -10 -24.5t-25 -10.5q-14 0 -24.5 10.5t-10.5 24.5v211q0 22 -8.5 41.5t-23 34t-34 23t-41.5 8.5h-32q-22 0 -41.5 -8.5 t-34 -22.5t-23 -33.5t-8.5 -40.5v-213q0 -14 -10.5 -24.5t-24.5 -10.5q-15 0 -25 10.5t-10 24.5v211q0 21 -8.5 40.5t-23 34t-34.5 23.5t-42 9h-32q-21 0 -40.5 -8t-34 -22.5t-23.5 -33.5t-9 -41v-213q0 -14 -10.5 -24.5t-24.5 -10.5t-24.5 10.5t-10.5 24.5v224z" horiz-adv-x="825" unicode="m"/>
<glyph glyph-name="n" d="M0 259q3 34 18 64t39 52.5t54.5 35t65.5 12.5h69q34 0 65 -13t54.5 -35t39 -52t18.5 -64v-224q0 -14 -10 -24.5t-25 -10.5q-14 0 -24.5 10.5t-10.5 24.5v211q0 22 -8.5 41.5t-23 34t-34 23t-41.5 8.5h-69q-21 0 -40.5 -8t-34 -22.5t-23.5 -33.5t-9 -41v-213 q0 -14 -10.5 -24.5t-24.5 -10.5t-24.5 10.5t-10.5 24.5v224z" horiz-adv-x="531" unicode="n"/>
<glyph glyph-name="o" d="M246 423q36 0 68 -14t56.5 -38.5t38.5 -56.5t14 -68v-69q0 -36 -14 -68.5t-38.5 -56.5t-56.5 -38t-68 -14h-69q-36 0 -68.5 14t-56.5 38t-38 56.5t-14 68.5v69q0 36 14 68t38 56.5t56.5 38.5t68.5 14h69zM177 353q-22 0 -41.5 -8.5t-34 -22.5t-23 -34t-8.5 -42v-69 q0 -22 8.5 -41.5t23 -34t34 -23t41.5 -8.5h69q22 0 41.5 8.5t34 23t23 34t8.5 41.5v69q0 22 -8.5 41.5t-23 34t-34 23t-41.5 8.5h-69z" unicode="o"/>
<glyph glyph-name="p" d="M71 -159q0 -14 -10.5 -24.5t-25.5 -10.5q-14 0 -24.5 10.5t-10.5 24.5v402q0 37 14.5 69.5t39 57t57 39t69.5 14.5h70q37 0 70 -14.5t57.5 -39t38.5 -57.5t14 -69v-64q0 -37 -14 -70t-38.5 -57.5t-57.5 -39t-70 -14.5h-70q-61 0 -109 37v-194zM71 177q1 -23 10 -43 t24 -34.5t34.5 -22.5t40.5 -8h70q22 0 42 9t35 24t23.5 35t8.5 42v64q0 22 -8.5 41.5t-23 34.5t-34.5 24t-43 9h-70q-22 0 -42 -8.5t-35 -23.5t-23.5 -35t-8.5 -42v-24v-42z" unicode="p"/>
<glyph glyph-name="q" d="M359 35q-48 -37 -109 -37h-70q-37 0 -70 14.5t-57.5 39t-38.5 57.5t-14 70v64q0 36 14 69t38.5 57.5t57.5 39t70 14.5h70q37 0 69.5 -14.5t57 -39t39 -57t14.5 -69.5v-402q0 -14 -10.5 -24.5t-24.5 -10.5q-15 0 -25.5 10.5t-10.5 24.5v194zM359 219v24q0 22 -8.5 42 t-23.5 35t-35 23.5t-42 8.5h-70q-23 0 -43 -9t-34.5 -24t-23 -34.5t-8.5 -41.5v-64q0 -22 8.5 -42t23.5 -35t35 -24t42 -9h70q21 0 40.5 8t34.5 22.5t24 34.5t10 43v42z" horiz-adv-x="529" unicode="q"/>
<glyph glyph-name="r" d="M0 259q3 34 18 64t39 52.5t54.5 35t65.5 12.5h48q16 0 39.5 -5.5t45 -15.5t36.5 -24t15 -32q0 -14 -10.5 -24.5t-24.5 -10.5t-25 11q-31 31 -76 31h-48q-21 0 -40.5 -8t-34 -22.5t-23.5 -33.5t-9 -41v-213q0 -14 -10.5 -24.5t-24.5 -10.5t-24.5 10.5t-10.5 24.5v224z" horiz-adv-x="454" unicode="r"/>
<glyph glyph-name="s" d="M305 324q-3 9 -10 16l-2 2q-13 11 -29 11h-146q-18 0 -31 -13.5t-13 -31.5q0 -24 24.5 -37.5t54.5 -20t55 -8t26 -1.5q25 -3 52.5 -10.5t50 -22t37 -37t14.5 -56.5q0 -24 -9 -44.5t-25 -36.5t-36.5 -25t-44.5 -9h-159q-21 0 -41.5 8t-36.5 22.5t-26 34.5t-10 44 q0 17 9.5 29t26.5 12q19 0 24 -12.5t9 -27.5t12 -27.5t33 -12.5h159q20 0 32 14t12 31q0 21 -14 32t-34 17t-41 8t-34 4q-27 3 -60.5 8.5t-62 20t-48 39t-19.5 64.5q0 24 9 45t24.5 36.5t36 24.5t44.5 9h146q41 0 72 -26l1 1l8 -8q14 -16 23 -34.5t9 -42.5q0 -17 -9 -28.5 t-26 -11.5q-13 0 -19.5 5t-9.5 12.5t-4 16.5t-4 17z" horiz-adv-x="485" unicode="s"/>
<glyph glyph-name="t" d="M74 423h141q15 0 26 -10.5t11 -26.5q0 -15 -11 -26t-26 -11h-141l3 -161q0 -24 9 -44.5t24.5 -36t36 -24.5t44.5 -9h36q15 0 26 -11t11 -26t-11 -26t-26 -11h-36q-39 0 -73 15t-59.5 40.5t-40.5 59.5t-15 73l-3 346q0 16 11 26.5t26 10.5t26 -10.5t11 -26.5v-111z" horiz-adv-x="333" unicode="t"/>
<glyph glyph-name="u" d="M70 175q0 -22 9 -41t23.5 -33.5t34 -22.5t40.5 -8h32q22 0 42 9t34.5 23.5t23 34t8.5 40.5v211q0 15 10 25t25 10q14 0 24.5 -10t10.5 -25l-1 -224q-3 -34 -18 -64t-39 -52t-55 -35t-65 -13h-32q-35 0 -65.5 12.5t-54 35t-39 52t-18.5 64.5v224q0 15 10.5 25t24.5 10 t24.5 -10t10.5 -25v-213z" horiz-adv-x="469" unicode="u"/>
<glyph glyph-name="v" d="M-28 376q-3 6 -3 13q0 13 9.5 23.5t23.5 10.5q22 0 32 -21l133 -318q3 -7 10 -12t15 -5q19 0 26 17l133 318q4 10 12.5 15.5t19.5 5.5q14 0 23 -10.5t9 -23.5v-6.5t-2 -6.5l-133 -318q-11 -26 -35 -42t-53 -16t-52 15.5t-36 42.5z" horiz-adv-x="510" unicode="v"/>
<glyph glyph-name="w" d="M70 175q0 -22 9 -41t23.5 -33.5t34 -22.5t40.5 -8h32q22 0 42 9t34.5 23.5t23 34t8.5 40.5v211q0 15 10 25t25 10q14 0 24.5 -10t10.5 -25v-213q0 -21 8.5 -40.5t23 -33.5t34 -22.5t41.5 -8.5h32q22 0 41.5 8.5t34 23t23 34t8.5 41.5v211q0 15 10.5 25t24.5 10 q15 0 25 -10t10 -25v-224q-3 -35 -18.5 -64.5t-39 -52t-54.5 -35t-65 -12.5h-32q-42 0 -80 19t-62 53q-29 -34 -64 -53t-79 -19h-32q-35 0 -65.5 12.5t-54 35t-39 52t-18.5 64.5v224q0 15 10.5 25t24.5 10t24.5 -10t10.5 -25v-213z" horiz-adv-x="833" unicode="w"/>
<glyph glyph-name="x" d="M77 215q-32 21 -50 60.5t-18 78.5v34q0 15 10.5 25t24.5 10t24.5 -10t10.5 -25v-34q0 -22 8.5 -41.5t23.5 -34.5t34.5 -23.5t41.5 -8.5h68q22 0 41.5 8.5t34 23.5t23 34.5t8.5 41.5v34q0 15 10.5 25t24.5 10q15 0 25 -10t10 -25v-34q0 -41 -17.5 -77t-49.5 -62 q36 -24 56 -64t20 -82v-34q0 -14 -10 -24.5t-24 -10.5q-15 0 -25 10.5t-10 24.5v34q0 22 -8.5 41.5t-23.5 34.5t-34.5 23.5t-41.5 8.5h-87q-21 0 -40.5 -8.5t-34 -23t-23.5 -34.5t-9 -42v-34q0 -14 -10.5 -24.5t-24.5 -10.5t-24.5 10.5t-10.5 24.5v34q0 43 20.5 82.5 t56.5 63.5z" horiz-adv-x="534" unicode="x"/>
<glyph glyph-name="y" d="M290 10v89q-48 -37 -110 -37q-37 0 -69.5 14.5t-57 39t-39 57.5t-14.5 70v145q0 14 10.5 24.5t24.5 10.5q15 0 25.5 -10.5t10.5 -24.5v-145q0 -23 8.5 -43t23.5 -35t34.5 -23.5t42.5 -8.5t43 8.5t35 23.5t23.5 35t8.5 43v145q0 14 10.5 24.5t24.5 10.5q15 0 25.5 -10.5 t10.5 -24.5v-402q0 -37 -14.5 -69.5t-39.5 -57t-57.5 -39t-69.5 -14.5h-34q-15 0 -25.5 10.5t-10.5 24.5q0 15 10.5 25.5t25.5 10.5h34q22 0 42 8.5t35 23.5t24 35t9 42v24z" horiz-adv-x="464" unicode="y"/>
<glyph glyph-name="z" d="M82 107q-5 -2 -7.5 -7.5t-2.5 -10.5q0 -8 6 -14t14 -6h267q14 0 24 -10t10 -24t-10 -23.5t-24 -9.5h-267q-17 0 -32.5 6.5t-27.5 18t-19.5 27.5t-7.5 36q0 23 11.5 43.5t31.5 31.5l265 155q6 4 7 8l1 2q2 4 2 7q0 8 -5.5 14.5t-15.5 6.5h-257q-14 0 -23.5 9.5t-9.5 23.5 t9.5 24t23.5 10h257q18 0 34 -7t28 -19t19 -28t7 -34q0 -23 -11.5 -43t-32.5 -32z" horiz-adv-x="485" unicode="z"/>
<glyph glyph-name="braceleft" d="M178 466q-11 -11 -17 -24.5t-6 -28.5v-90q0 -29 -11 -56.5t-32 -47.5l-3 -4q-2 -1 -5 -4q2 -1 5 -4l3 -3q43 -43 43 -104v-90q0 -15 6 -28.5t17 -24.5l2 -2q12 -11 27 -15t28.5 -7.5t22.5 -10.5t9 -23q0 -15 -10.5 -25.5t-25.5 -10.5h-1q-28 0 -53.5 10.5t-45.5 29.5 l-4 3q-20 21 -31.5 48t-11.5 56v90q0 30 -22 54l-2 2q-11 10 -26 14t-28.5 7.5t-23 10t-9.5 23.5q0 18 9 25t22.5 10.5t28.5 6.5t27 14l2 2q22 22 22 54v90q0 29 11.5 56t31.5 48l4 3q20 19 45.5 29.5t53.5 10.5h1q15 0 25.5 -10.5t10.5 -25.5q0 -18 -9.5 -25t-23 -10.5 t-28.5 -7t-26 -13.5z" horiz-adv-x="365" unicode="{"/>
<glyph glyph-name="bar" d="M71 -102q0 -14 -10.5 -24.5t-25.5 -10.5q-14 0 -24.5 10.5t-10.5 24.5v626q0 15 10.5 25.5t24.5 10.5q15 0 25.5 -10.5t10.5 -25.5v-626z" horiz-adv-x="168" unicode="|"/>
<glyph glyph-name="braceright" d="M79 468q-11 10 -26 13.5t-28.5 7t-23 10.5t-9.5 25q0 15 10.5 25.5t25.5 10.5h1q28 0 53.5 -10.5t45.5 -29.5l4 -3q20 -21 31.5 -48t11.5 -56v-90q0 -32 22 -54l2 -2q12 -11 27 -14t28.5 -6.5t22.5 -10.5t9 -25q0 -17 -9.5 -23.5t-23 -10t-28.5 -7.5t-26 -14l-2 -2 q-22 -24 -22 -54v-90q0 -29 -11.5 -56t-31.5 -48l-4 -3q-20 -19 -45.5 -29.5t-53.5 -10.5h-1q-15 0 -25.5 10.5t-10.5 25.5q0 16 9 23t22.5 10.5t28.5 7.5t27 15l2 2q23 23 23 53v90q0 61 43 104l3 3q3 3 5 4q-3 3 -5 4l-3 4q-21 20 -32 47.5t-11 56.5v90q0 15 -6 28.5 t-17 24.5z" horiz-adv-x="384" unicode="}"/>
<glyph glyph-name="asciitilde" d="M318 482l-3 -1q-32 -13 -66 -12.5t-66 14.5q-39 17 -79 2l-1 -1q-13 -5 -26 1q-13 5 -18 18.5t1 26.5q4 11 19 18q32 12 66 11.5t66 -14.5q39 -17 80 -1q12 5 26 0q13 -6 18 -19t-1 -26q-5 -12 -16 -17z" horiz-adv-x="416" unicode="~"/>
<glyph glyph-name="exclamdown" d="M42 477.005q17 0 29 12.499q12 12.5 12 29.499q0 16.998 -12 28.998q-12 11.999 -29 11.999t-29.5 -11.999q-12.5 -12 -12.5 -28.998q0 -16.999 12.5 -29.499q12.5 -12.499 29.5 -12.499zM77 36.0322v382.977q0 13.999 -10.5 24.498q-10.5 10.5 -24.5 10.5 q-15 0 -25.5 -10.5q-10.5 -10.499 -10.5 -24.498v-382.977q0 -14.999 10.5 -25.499q10.5 -10.499 25.5 -10.499q14 0 24.5 10.499q10.5 10.5 10.5 25.499z" horiz-adv-x="171" unicode="¡"/>
<glyph glyph-name="cent" d="M250 426h80q13 0 22 -10t9 -25t-10.5 -25.5t-25.5 -10.5h-75v-287h79q14 0 23 -9.5t9 -25.5q0 -15 -10.5 -25t-25.5 -10h-75v-17q0 -15 -10.5 -25t-25.5 -10q-14 0 -24.5 10t-10.5 25v17q-38 0 -70.5 14.5t-56.5 39t-38 57t-14 68.5v69q0 37 14 69.5t38.5 57t57 39 t69.5 14.5v27q0 15 10.5 25.5t24.5 10.5q15 0 25.5 -10.5t10.5 -25.5v-27zM179 355q-23 0 -42.5 -8.5t-34 -23.5t-23 -35t-8.5 -42v-69q0 -22 8.5 -41.5t23 -34t34 -23.5t42.5 -10v287z" horiz-adv-x="438" unicode="¢"/>
<glyph glyph-name="sterling" d="M126 244v-174h260q16 0 26 -8.5t10 -26.5q0 -14 -10.5 -24.5t-24.5 -10.5h-332v244h-40q-16 0 -26 9t-10 27q0 14 10.5 24.5t24.5 10.5h41v99q0 30 11.5 56.5t31 46t46 31t56.5 11.5q15 0 25.5 -9t10.5 -26t-10.5 -26.5t-25.5 -9.5q-31 0 -52.5 -21.5t-21.5 -52.5v-99h89 q15 0 25.5 -10.5t10.5 -24.5q0 -36 -37 -36h-88z" horiz-adv-x="510" unicode="£"/>
<glyph glyph-name="currency" d="M262 375q10 10 24 10q15 0 25 -11t10 -24q0 -14 -10 -24l-31 -30q20 -34 20 -72q0 -37 -20 -71l30 -30q10 -10 10 -25q0 -13 -10 -23.5t-24 -10.5q-15 0 -24 10l-30 30q-35 -19 -72 -19q-38 0 -71 19l-30 -30q-10 -10 -25 -10q-14 0 -24 10t-10 24q0 15 10 25l30 30 q-19 32 -19 71q0 40 19 72l-30 30q-10 9 -10 24q0 14 9.5 24.5t24.5 10.5q13 0 25 -10l30 -31q32 20 71 20q38 0 72 -20zM212 276q-22 22 -52 22q-29 0 -51 -21.5t-22 -52.5t22 -52t51 -21t51.5 21.5t22.5 51.5t-22 52z" horiz-adv-x="407" unicode="¤"/>
<glyph glyph-name="yen" d="M279 224h66q14 0 24.5 -10.5t10.5 -24.5q0 -18 -9.5 -27t-26.5 -9h-65v-21h66q14 0 24.5 -10t10.5 -25q0 -16 -9.5 -25.5t-23.5 -9.5h-68v-27q0 -14 -10 -24.5t-25 -10.5q-14 0 -24.5 10.5t-10.5 24.5v27h-66q-15 0 -25 9t-10 26q0 15 10.5 25t25.5 10h65v21h-65 q-16 0 -26 9t-10 27q0 14 10.5 24.5t25.5 10.5h65v15q-44 5 -82.5 26t-66.5 53t-44 73t-16 85v48q0 14 10.5 24.5t24.5 10.5q15 0 25 -10.5t10 -24.5v-48q0 -35 13.5 -65.5t36.5 -53t53.5 -36t65.5 -13.5h11q34 0 64.5 13t53.5 35.5t36.5 53t13.5 66.5v48q0 14 10.5 24.5 t24.5 10.5q15 0 25.5 -10.5t10.5 -24.5v-48q0 -48 -18.5 -91.5t-51.5 -77.5h-1q-57 -59 -139 -68v-15z" horiz-adv-x="603" unicode="¥"/>
<glyph glyph-name="brokenbar" d="M71 -102q0 -14 -10.5 -24.5t-25.5 -10.5q-14 0 -24.5 10.5t-10.5 24.5v253q0 15 10.5 25.5t24.5 10.5q15 0 25.5 -10.5t10.5 -25.5v-253zM71 271q0 -14 -10.5 -24.5t-25.5 -10.5q-14 0 -24.5 10.5t-10.5 24.5v253q0 15 10.5 25.5t24.5 10.5q15 0 25.5 -10.5t10.5 -25.5 v-253z" horiz-adv-x="165" unicode="¦"/>
<glyph glyph-name="section" d="M93 0q21 -23 53 -23h211q32 0 53 23l2 2q20 22 20 51q0 27 -14 43.5t-36 26.5t-48.5 15.5t-51.5 9.5l-13 2q-32 4 -64 12t-59.5 23t-47.5 39.5t-26 62.5q-33 19 -52.5 53t-19.5 73q0 57 40 99l3 4q20 21 47 32t56 11h211q61 0 104 -43l3 -4q19 -20 29.5 -45.5t10.5 -53.5 q0 -15 -10.5 -25.5t-25.5 -10.5q-18 0 -25 9t-10.5 22.5t-7 28.5t-13.5 27l-2 2q-22 22 -53 22h-211q-31 0 -53 -22l-2 -2q-20 -22 -20 -51q0 -27 14 -44t36 -27.5t49 -15.5t52 -9l13 -2q29 -5 61 -12t60 -21.5t48.5 -39t27.5 -63.5q32 -20 52 -54t20 -72q0 -29 -10.5 -54.5 t-29.5 -45.5l-3 -4q-21 -20 -48 -31.5t-56 -11.5h-211q-29 0 -56 11.5t-47 31.5l-3 4q-40 42 -40 99v1q0 14 10.5 24.5t25.5 10.5q17 0 23.5 -9t10 -22.5t7 -28.5t14.5 -26zM168 254q16 -12 37.5 -19t44 -11t45 -7t40.5 -6q-17 12 -38.5 19t-44 11.5t-44.5 7t-40 5.5z" horiz-adv-x="608" unicode="§"/>
<glyph glyph-name="dieresis" d="M127 486q-16 0 -26.5 11t-10.5 26t10.5 26t26.5 11q15 0 25.5 -11t10.5 -26t-10.5 -26t-25.5 -11zM221 523q0 15 10.5 26t25.5 11q16 0 26.5 -11t10.5 -26t-10.5 -26t-26.5 -11q-15 0 -25.5 11t-10.5 26z" horiz-adv-x="389" unicode="¨"/>
<glyph glyph-name="copyright" d="M212 559q37 0 62.5 -26t25.5 -62v-123q0 -18 -7 -34t-19 -28.5t-28 -19.5t-34 -7h-124q-18 0 -34 7t-28 19.5t-19 28.5t-7 34v123q0 36 25 62t63 26h124zM88 524q-22 0 -37.5 -15t-15.5 -38v-123q0 -23 15.5 -38t37.5 -15h124q21 0 37 15t16 38v123q0 23 -16 38t-37 15 h-124zM193 500q8 0 13 -5t5 -13q0 -7 -5 -12t-13 -5h-54q-17 0 -30 -13t-13 -30v-25q0 -17 13 -30t30 -13h54q8 0 13 -5t5 -12q0 -8 -5 -13t-13 -5h-54q-32 0 -55.5 22.5t-23.5 55.5v25q0 33 23.5 55.5t55.5 22.5h54z" horiz-adv-x="402" unicode="©"/>
<glyph glyph-name="ordfeminine" d="M185 565q28 0 53.5 -11t44.5 -30t30 -44t11 -53v-49q0 -29 -11 -54t-30 -44t-44.5 -30t-53.5 -11h-71q-24 0 -44.5 9t-36 24.5t-24.5 36t-9 44.5t9 44.5t24.5 36t36 24.5t44.5 9h122q-12 11 -23 18t-28 7h-113q-15 0 -26 10.5t-11 25.5q0 19 12 28t26 9h112zM181 313h4 q27 0 46 19t19 46v15h-136q-17 0 -28.5 -11.5t-11.5 -28.5t11.5 -28.5t28.5 -11.5h67z" horiz-adv-x="403" unicode="ª"/>
<glyph glyph-name="guillemotleft" d="M272 179q7 -8 7 -21t-9 -23t-23 -10q-16 0 -25 12l-94 109q-13 16 -13 35q0 20 13 35l94 110q9 11 24 11q14 0 23.5 -10t9.5 -23t-7 -21l-87 -102zM153 179q8 -10 8 -22q0 -13 -9.5 -22.5t-22.5 -9.5q-16 0 -26 12l-93 109q-13 16 -13 35q0 20 13 35l93 110q9 11 25 11 q14 0 23.5 -9.5t9.5 -23.5q0 -11 -8 -21l-86 -102z" horiz-adv-x="393" unicode="«"/>
<glyph glyph-name="logicalnot" d="M449 360h-414q-14 0 -24.5 10.5t-10.5 24.5q0 15 10.5 25.5t24.5 10.5h449q15 0 25.5 -10.5t10.5 -25.5v-120q0 -14 -10.5 -24.5t-25.5 -10.5q-14 0 -24.5 10.5t-10.5 24.5v85z" horiz-adv-x="635" unicode="¬"/>
<glyph glyph-name="uni00AD" d="M35 189q-14 0 -24.5 10.5t-10.5 24.5q0 15 10.5 25t24.5 10h291q14 0 24.5 -10t10.5 -25q0 -14 -10.5 -24.5t-24.5 -10.5h-291z" horiz-adv-x="511" unicode="­"/>
<glyph glyph-name="registered" d="M212 559q37 0 62.5 -26t25.5 -62v-123q0 -18 -7 -34t-19 -28.5t-28 -19.5t-34 -7h-124q-18 0 -34 7t-28 19.5t-19 28.5t-7 34v123q0 36 25 62t63 26h124zM88 524q-22 0 -37.5 -15t-15.5 -38v-123q0 -23 15.5 -38t37.5 -15h124q21 0 37 15t16 38v123q0 23 -16 38t-37 15 h-124zM228 345v-1q2 -6 2 -8q0 -8 -6 -13t-12 -5q-4 0 -8 2l-54 53h-45v-37q0 -7 -5.5 -12t-12.5 -5q-5 0 -9.5 2t-4.5 5h-4v129q0 18 10 29l3 3q12 13 32 13h54q26 0 44.5 -18.5t18.5 -44.5q0 -19 -9.5 -34.5t-26.5 -23.5zM107 461q-2 -1 -2 -6v-46h63q11 0 19 8t8 20 q0 11 -8 19.5t-19 8.5h-54q-4 0 -7 -3v-1z" horiz-adv-x="402" unicode="®"/>
<glyph glyph-name="degree" d="M99 559q19 0 37 -7.5t32 -21t22 -31.5t8 -39q0 -20 -8 -38t-21.5 -31.5t-31.5 -21.5t-38 -8q-21 0 -39.5 8t-31.5 22t-20.5 31.5t-7.5 37.5q0 21 8 39t21.5 31.5t31.5 21t38 7.5zM124 485q-11 11 -25 11q-15 0 -25.5 -11t-10.5 -25q0 -13 9.5 -24t26.5 -11 q14 0 24.5 10.5t10.5 24.5q0 15 -10 25z" horiz-adv-x="317" unicode="°"/>
<glyph glyph-name="plusminus" d="M191 297h-156q-14 0 -24.5 10.5t-10.5 24.5q0 15 10.5 25.5t24.5 10.5h156v156q0 14 10.5 24.5t25.5 10.5q14 0 24.5 -10.5t10.5 -24.5v-156h156q15 0 25 -10.5t10 -25.5q0 -14 -10 -24.5t-25 -10.5h-156v-156q0 -15 -10.5 -25t-24.5 -10q-15 0 -25.5 10t-10.5 25v156z M35 0q-14 0 -24.5 10.5t-10.5 24.5q0 15 10.5 25.5t24.5 10.5h383q15 0 25 -10.5t10 -25.5q0 -14 -10 -24.5t-25 -10.5h-383z" horiz-adv-x="570" unicode="±"/>
<glyph glyph-name="twosuperior" d="M68 313h182q14 0 24 -10t10 -24t-10 -24t-24 -10h-216q-14 1 -24 10.5t-10 23.5v56q0 26 11 43.5t30 29t43.5 17.5t51.5 10q12 2 26.5 4t27 5.5t21 9.5t8.5 16q0 8 -7 14.5t-15 6.5h-103q-12 0 -16 -8.5t-7.5 -19t-9.5 -19t-22 -8.5q-14 0 -24 10t-10 24q0 19 7.5 35 t19.5 28t28 19t34 7h103q37 0 63 -26t26 -63q0 -27 -12 -45t-31.5 -29.5t-45 -18t-52.5 -9.5q-11 -2 -24.5 -3.5t-25 -5t-19.5 -9.5t-8 -15v-22z" horiz-adv-x="389" unicode="²"/>
<glyph glyph-name="threesuperior" d="M224 442q20 -14 30.5 -38t10.5 -47t-9 -43t-24 -35t-35.5 -24t-42.5 -9h-120q-14 0 -24 10t-10 24t10 23.5t24 9.5h120q17 0 30 13t13 31q0 16 -12 29.5t-30 13.5h-121q-14 0 -24 9.5t-10 23.5t10 24t24 10h120q3 0 7.5 3t4.5 9q0 7 -4 10t-8 3h-120q-14 0 -24 9.5 t-10 23.5t10 24t24 10h120q16 0 30.5 -6.5t25.5 -17t17.5 -25.5t6.5 -31q0 -19 -10 -37z" horiz-adv-x="363" unicode="³"/>
<glyph glyph-name="acute" d="M232 494q-7 -11 -19.5 -14.5t-23.5 3.5q-11 6 -14.5 18.5t3.5 23.5q13 22 20 34.5t11 19t5 8.5l2 4q7 11 19.5 14.5t23.5 -2.5q11 -7 14 -19.5t-3 -23.5z" horiz-adv-x="431" unicode="´"/>
<glyph glyph-name="paragraph" d="M467 524q0 -15 -10.5 -25.5t-25.5 -10.5h-54v-550q0 -16 -9.5 -27t-26.5 -11q-14 0 -24.5 10.5t-10.5 25.5v552h-57v-550q0 -16 -8.5 -27t-27.5 -11q-14 0 -24.5 10.5t-10.5 25.5v245q-37 1 -69.5 17t-56.5 41.5t-38 59t-14 71.5q0 39 15 73t40.5 60t60 41t73.5 15h244 q14 0 24 -9t10 -26zM178 487q-23 -2 -42.5 -12.5t-33.5 -26.5t-22.5 -36t-8.5 -42q0 -23 8.5 -43.5t22.5 -36.5t33.5 -26.5t42.5 -11.5v235z" horiz-adv-x="576" unicode="¶"/>
<glyph glyph-name="periodcentered" d="M47 284q20 0 33.5 -13.5t13.5 -33.5t-13.5 -33.5t-33.5 -13.5t-33.5 13.5t-13.5 33.5t13.5 33.5t33.5 13.5z" horiz-adv-x="207" unicode="·"/>
<glyph glyph-name="cedilla" d="M32 59q20 0 37.5 -7.5t31 -21t21.5 -31.5t8 -39q0 -20 -8 -37.5t-21.5 -31t-31 -21.5t-37.5 -8q-14 0 -23 9t-9 22q0 18 10.5 23.5t23 8.5t23 9.5t10.5 25.5t-10.5 25.5t-23 10t-23 9t-10.5 22.5q0 14 9 23t23 9z" horiz-adv-x="222" unicode="¸"/>
<glyph glyph-name="onesuperior" d="M41 492h-7q-14 0 -24 9.5t-10 23.5t10 24t24 10h6h11h6h11h7q14 0 23.5 -10t9.5 -24v-245q0 -14 -9.5 -24t-23.5 -10t-24 10t-10 24v212z" horiz-adv-x="203" unicode="¹"/>
<glyph glyph-name="ordmasculine" d="M188 565q28 0 53.5 -11t44 -29.5t29.5 -44t11 -53.5v-49q0 -29 -11 -54t-30 -44t-44 -30t-53 -11h-49q-29 0 -54 11t-44 30t-30 44t-11 54v49q0 28 11 53t30 44t44 30t54 11h49zM139 492q-26 0 -45.5 -19.5t-19.5 -45.5v-49q0 -27 19 -46t46 -19h49q26 0 45.5 19.5 t19.5 45.5v49q0 26 -19.5 45.5t-45.5 19.5h-49z" horiz-adv-x="400" unicode="º"/>
<glyph glyph-name="guillemotright" d="M91 281l-87 102q-7 8 -7 21t9.5 23t23.5 10q15 0 24 -11l94 -110q13 -15 13 -35q0 -19 -13 -35l-94 -109q-9 -12 -25 -12q-14 0 -23 10t-9 23t7 21zM209 281l-86 102q-8 10 -8 21q0 14 9.5 23.5t23.5 9.5q16 0 25 -11l93 -110q13 -15 13 -35q0 -19 -13 -35l-93 -109 q-11 -12 -26 -12q-13 0 -22.5 9.5t-9.5 22.5q0 12 8 22z" horiz-adv-x="390" unicode="»"/>
<glyph glyph-name="onequarter" d="M52 489h-7q-15 0 -25 10.5t-10 24.5q0 17 12 26t29 9h11h7h11q17 0 29.5 -8.5t12.5 -26.5v-253q0 -15 -10.5 -25t-24.5 -10q-15 0 -24.5 10t-10.5 25v218zM62 13q-10 -13 -27 -13q-14 0 -24.5 10.5t-10.5 24.5q0 10 10 25t23.5 32t28.5 33.5t26 29.5q80 98 159 196 t162 195q11 13 27 13q14 0 24.5 -11t10.5 -25q0 -12 -8 -22q-100 -123 -200 -244.5t-201 -243.5zM423 95h-112q-21 0 -37.5 14.5t-16.5 39.5q0 16 7 27l76 130q10 19 29 17q16 0 25 -11t9 -23q0 -10 -4 -17l-63 -109h87v98q0 14 10 24.5t25 10.5q14 0 24 -10.5t10 -24.5 v-226q0 -15 -10 -25t-24 -10q-15 0 -25 10t-10 25v60z" horiz-adv-x="611" unicode="¼"/>
<glyph glyph-name="onehalf" d="M52 489h-7q-15 0 -25 10.5t-10 24.5q0 17 12 26t29 9h11h7h11q17 0 29.5 -8.5t12.5 -26.5v-253q0 -15 -10.5 -25t-24.5 -10q-15 0 -24.5 10t-10.5 25v218zM62 13q-10 -13 -27 -13q-14 0 -24.5 10.5t-10.5 24.5q0 10 10 25t23.5 32t28.5 33.5t26 29.5q80 98 159 196 t162 195q11 13 27 13q14 0 24.5 -11t10.5 -25q0 -12 -8 -22q-100 -123 -200 -244.5t-201 -243.5zM353 70h156q14 0 24 -10.5t10 -24.5q0 -15 -10 -25t-24 -10h-191q-14 0 -24.5 10t-10.5 25v57q0 38 18 56t44.5 28t56.5 16t55 20q5 2 8.5 7.5t3.5 11.5q0 9 -6.5 16t-15.5 7 h-66q-13 0 -17.5 -9t-7.5 -20t-9.5 -20t-22.5 -9q-15 0 -25 10.5t-10 25.5q0 38 27 64.5t65 26.5h66q18 0 35 -7t29.5 -19.5t20 -29.5t7.5 -36q0 -36 -16 -53.5t-41 -27t-56 -16.5t-61 -22q-5 -3 -8.5 -7.5t-3.5 -12.5v-22z" horiz-adv-x="656" unicode="½"/>
<glyph glyph-name="threequarters" d="M477 95h-111q-23 0 -39 15.5t-16 38.5q0 14 8 27l75 130q9 17 30 17q15 0 24.5 -10.5t9.5 -23.5q0 -9 -5 -17l-63 -109h87v98q0 14 10.5 24.5t24.5 10.5t24.5 -10.5t10.5 -24.5v-226q0 -15 -10.5 -25t-24.5 -10t-24.5 10t-10.5 25v60zM186 252q-15 -9 -33.5 -13 t-38.5 -4.5t-40 0.5t-39 1q-14 0 -24.5 10t-10.5 24q0 19 13 26.5t32.5 9.5t41.5 0.5t39 -1.5q18 0 31.5 13t13.5 32q0 23 -12.5 32.5t-31.5 11.5t-41.5 0.5t-41.5 -0.5t-31.5 8t-12.5 27q0 18 13 26t32.5 10t41.5 0.5t39 -1.5q13 0 13 13q0 9 -10.5 11.5t-25.5 2t-33.5 -2 t-33.5 1t-25.5 10t-10.5 24.5q0 18 13 26t32.5 10t41.5 0.5t39 -1.5q18 0 33 -7t26 -18.5t17 -26t6 -30.5q0 -21 -9 -39q19 -20 30 -40.5t11 -47.5q0 -29 -14 -55t-40 -43zM251 287q54 65 106.5 129.5t105.5 129.5q11 13 28 13q14 0 24.5 -11t10.5 -25q0 -12 -8 -22 q-101 -123 -200.5 -244.5t-200.5 -243.5q-10 -13 -28 -13q-14 0 -24.5 10.5t-10.5 24.5q0 9 10 24.5t24 32.5t29 34t25 29q23 29 47 56.5t47 56.5z" horiz-adv-x="632" unicode="¾"/>
<glyph glyph-name="questiondown" d="M226.011 477.005q-16.999 0 -29.498 11.999q-12.499 12 -12.499 28.999t12.499 29.498t29.498 12.499t28.999 -12.499q11.999 -12.499 11.999 -29.498t-11.999 -28.999q-12 -11.999 -28.999 -11.999zM227.011 245.02q-25.998 -4 -57.4961 -8t-58.4961 -13.499 q-26.999 -9.49902 -45.498 -27.498q-18.498 -17.999 -18.498 -49.9971q0 -28.998 19.998 -50.9971l2 -2q21.999 -21.998 52.9971 -21.998h164.99q30.998 0 52.9961 21.998l2 2q10.999 10.999 13.999 25.998t6.5 28.499q3.5 13.499 10.499 22.498q7 9 24.999 9 q13.999 0 24.498 -10.5q10.5 -10.499 10.5 -24.498v-1q0 -56.9971 -38.998 -98.9941l-4 -3q-19.999 -19.998 -46.9971 -31.498q-26.998 -11.499 -55.9961 -11.499h-164.99q-28.998 0 -55.9971 11.499q-26.998 11.5 -46.9971 31.498l-3.99902 3 q-38.998 41.9971 -38.998 99.9941q0 40.9971 17.499 69.4961q17.499 28.498 46.9971 47.9971q29.498 19.498 68.4961 30.498q38.9971 10.999 80.9951 16.999v107.993q0 13.999 10.499 24.498q10.499 10.5 25.498 10.5q15.999 0 23.499 -8.5 q7.49902 -8.49902 9.99902 -20.999q2.5 -12.499 2 -26.498t-0.5 -25.998v-12v-20.998v-11.999q0 -12 0.5 -26.499t-2 -26.498t-9.49902 -20.499q-7 -8.49902 -22.999 -8.49902z" horiz-adv-x="539" unicode="¿"/>
<glyph glyph-name="Agrave" d="M220 536l8 5q27 18 60 18q32 0 59 -18l2 -1q24 -17 37 -47l187 -446q2 -3 2 -6.5v-6.5q0 -13 -9.5 -23.5t-24.5 -10.5q-10 0 -18.5 5.5t-12.5 15.5l-50 119h-345l-49 -119q-4 -10 -13 -15.5t-19 -5.5q-14 0 -24 10.5t-10 23.5q0 7 3 13l186 446q11 26 31 42v1zM432 208 l-109 259q-3 10 -13 17l-1 1q-9 6 -21 6t-22 -6l-2 -2q-8 -6 -12 -16l-108 -259h288zM241 700q-6 11 -3 23.5t14 19.5q11 6 23.5 2.5t19.5 -14.5l2 -4t5 -8.5t11 -19t20 -34.5q7 -11 3.5 -23.5t-14.5 -18.5q-11 -7 -23.5 -3.5t-19.5 14.5z" horiz-adv-x="655" unicode="À"/>
<glyph glyph-name="Aacute" d="M220 536l8 5q27 18 60 18q32 0 59 -18l2 -1q24 -17 37 -47l187 -446q2 -3 2 -6.5v-6.5q0 -13 -9.5 -23.5t-24.5 -10.5q-10 0 -18.5 5.5t-12.5 15.5l-50 119h-345l-49 -119q-4 -10 -13 -15.5t-19 -5.5q-14 0 -24 10.5t-10 23.5q0 7 3 13l186 446q11 26 31 42v1zM432 208 l-109 259q-3 10 -13 17l-1 1q-9 6 -21 6t-22 -6l-2 -2q-8 -6 -12 -16l-108 -259h288zM298 634q-7 -11 -19.5 -14.5t-23.5 3.5q-11 6 -14.5 18.5t3.5 23.5q13 22 20 34.5t11 19t5 8.5l2 4q7 11 19.5 14.5t23.5 -2.5q11 -7 14 -19.5t-3 -23.5z" horiz-adv-x="655" unicode="Á"/>
<glyph glyph-name="Acircumflex" d="M220 536l8 5q27 18 60 18q32 0 59 -18l2 -1q24 -17 37 -47l187 -446q2 -3 2 -6.5v-6.5q0 -13 -9.5 -23.5t-24.5 -10.5q-10 0 -18.5 5.5t-12.5 15.5l-50 119h-345l-49 -119q-4 -10 -13 -15.5t-19 -5.5q-14 0 -24 10.5t-10 23.5q0 7 3 13l186 446q11 26 31 42v1zM432 208 l-109 259q-3 10 -13 17l-1 1q-9 6 -21 6t-22 -6l-2 -2q-8 -6 -12 -16l-108 -259h288zM283 657l-62 -53q-9 -8 -21.5 -7.5t-20.5 10.5q-8 9 -7 21.5t10 20.5l69 59q13 12 32 12q18 0 32 -12l69 -59q10 -8 11 -20.5t-7 -21.5q-8 -10 -20.5 -10.5t-21.5 7.5z" horiz-adv-x="655" unicode="Â"/>
<glyph glyph-name="Atilde" d="M220 536l8 5q27 18 60 18q32 0 59 -18l2 -1q24 -17 37 -47l187 -446q2 -3 2 -6.5v-6.5q0 -13 -9.5 -23.5t-24.5 -10.5q-10 0 -18.5 5.5t-12.5 15.5l-50 119h-345l-49 -119q-4 -10 -13 -15.5t-19 -5.5q-14 0 -24 10.5t-10 23.5q0 7 3 13l186 446q11 26 31 42v1zM432 208 l-109 259q-3 10 -13 17l-1 1q-9 6 -21 6t-22 -6l-2 -2q-8 -6 -12 -16l-108 -259h288zM411 632l-3 -1q-32 -13 -66 -12.5t-66 14.5q-39 17 -79 2l-1 -1q-13 -5 -26 1q-13 5 -18 18.5t1 26.5q4 11 19 18q32 12 66 11.5t66 -14.5q39 -17 80 -1q12 5 26 0q13 -6 18 -19t-1 -26 q-5 -12 -16 -17z" horiz-adv-x="655" unicode="Ã"/>
<glyph glyph-name="Adieresis" d="M220 536l8 5q27 18 60 18q32 0 59 -18l2 -1q24 -17 37 -47l187 -446q2 -3 2 -6.5v-6.5q0 -13 -9.5 -23.5t-24.5 -10.5q-10 0 -18.5 5.5t-12.5 15.5l-50 119h-345l-49 -119q-4 -10 -13 -15.5t-19 -5.5q-14 0 -24 10.5t-10 23.5q0 7 3 13l186 446q11 26 31 42v1zM432 208 l-109 259q-3 10 -13 17l-1 1q-9 6 -21 6t-22 -6l-2 -2q-8 -6 -12 -16l-108 -259h288zM225 636q-16 0 -26.5 11t-10.5 26t10.5 26t26.5 11q15 0 25.5 -11t10.5 -26t-10.5 -26t-25.5 -11zM319 673q0 15 10.5 26t25.5 11q16 0 26.5 -11t10.5 -26t-10.5 -26t-26.5 -11 q-15 0 -25.5 11t-10.5 26z" horiz-adv-x="655" unicode="Ä"/>
<glyph glyph-name="Aring" d="M286 691q19 0 37 -7.5t32 -21t22 -31.5t8 -39q0 -20 -8 -38t-21.5 -31.5t-31.5 -21.5t-38 -8q-21 0 -39.5 8t-31.5 22t-20.5 31.5t-7.5 37.5q0 21 8 39t21.5 31.5t31.5 21t38 7.5zM311 617q-11 11 -25 11q-15 0 -25.5 -11t-10.5 -25q0 -13 9.5 -24t26.5 -11 q14 0 24.5 10.5t10.5 24.5q0 15 -10 25zM220 536l8 5q27 18 60 18q32 0 59 -18l2 -1q24 -17 37 -47l187 -446q2 -3 2 -6.5v-6.5q0 -13 -9.5 -23.5t-24.5 -10.5q-10 0 -18.5 5.5t-12.5 15.5l-50 119h-345l-49 -119q-4 -10 -13 -15.5t-19 -5.5q-14 0 -24 10.5t-10 23.5 q0 7 3 13l186 446q11 26 31 42v1zM432 208l-109 259q-3 10 -13 17l-1 1q-9 6 -21 6t-22 -6l-2 -2q-8 -6 -12 -16l-108 -259h288z" horiz-adv-x="655" unicode="Å"/>
<glyph glyph-name="AE" d="M385 245h-181l-139 -228q-11 -17 -30 -17q-16 0 -25.5 11t-9.5 24q0 10 5 18l281 462q12 20 32 32t45 12q11 0 23 -3h326q14 0 24.5 -10t10.5 -25q0 -14 -10.5 -24t-24.5 -10h-258q1 -5 1.5 -9.5t0.5 -9.5v-154h190q14 0 24.5 -10t10.5 -24q0 -15 -10.5 -25t-24.5 -10 h-190v-6q0 -4 -1 -6q1 -33 15 -62.5t36.5 -51t52 -34.5t63.5 -13h90q14 0 24.5 -10t10.5 -24q0 -15 -10.5 -25t-24.5 -10h-90q-48 0 -91 18t-76 51h-1q-33 33 -51 76t-18 91v6zM385 314v154q0 6 -3 11l-1 1q-6 8 -17 8q-7 0 -11 -3t-7 -6l-100 -165h139z" horiz-adv-x="880" unicode="Æ"/>
<glyph glyph-name="Ccedilla" d="M420 559q15 0 25 -10.5t10 -24.5q0 -15 -10.5 -25t-24.5 -10h-181q-35 0 -65.5 -13.5t-53 -36.5t-36 -54t-13.5 -65v-81q0 -35 13.5 -65.5t36 -53.5t53 -36.5t65.5 -13.5h181q14 0 24.5 -10t10.5 -25q0 -14 -10 -24.5t-25 -10.5h-181q-49 0 -92.5 19t-76 51.5t-51.5 76 t-19 92.5v81q0 49 19 92.5t51.5 76t76 51.5t92.5 19h181zM258 59q20 0 37.5 -7.5t31 -21t21.5 -31.5t8 -39q0 -20 -8 -37.5t-21.5 -31t-31 -21.5t-37.5 -8q-14 0 -23 9t-9 22q0 18 10.5 23.5t23 8.5t23 9.5t10.5 25.5t-10.5 25.5t-23 10t-23 9t-10.5 22.5q0 14 9 23t23 9z " horiz-adv-x="542" unicode="Ç"/>
<glyph glyph-name="Egrave" d="M71 315h316q15 0 25 -10.5t10 -25.5q0 -14 -10 -24.5t-25 -10.5h-316v-5q0 -35 13.5 -65.5t36 -53.5t53 -36.5t65.5 -13.5h181q14 0 24.5 -10t10.5 -25q0 -14 -10 -24.5t-25 -10.5h-181q-49 0 -92.5 19t-76 51.5t-51.5 76t-19 92.5v81q0 49 19 92.5t51.5 76t76 51.5 t92.5 19h181q15 0 25 -10.5t10 -24.5q0 -15 -10.5 -25t-24.5 -10h-181q-35 0 -65.5 -13.5t-53 -36.5t-36 -54t-13.5 -65v-5zM183 700q-6 11 -3 23.5t14 19.5q11 6 23.5 2.5t19.5 -14.5l2 -4t5 -8.5t11 -19t20 -34.5q7 -11 3.5 -23.5t-14.5 -18.5q-11 -7 -23.5 -3.5 t-19.5 14.5z" horiz-adv-x="542" unicode="È"/>
<glyph glyph-name="Eacute" d="M71 315h316q15 0 25 -10.5t10 -25.5q0 -14 -10 -24.5t-25 -10.5h-316v-5q0 -35 13.5 -65.5t36 -53.5t53 -36.5t65.5 -13.5h181q14 0 24.5 -10t10.5 -25q0 -14 -10 -24.5t-25 -10.5h-181q-49 0 -92.5 19t-76 51.5t-51.5 76t-19 92.5v81q0 49 19 92.5t51.5 76t76 51.5 t92.5 19h181q15 0 25 -10.5t10 -24.5q0 -15 -10.5 -25t-24.5 -10h-181q-35 0 -65.5 -13.5t-53 -36.5t-36 -54t-13.5 -65v-5zM263 634q-7 -11 -19.5 -14.5t-23.5 3.5q-11 6 -14.5 18.5t3.5 23.5q13 22 20 34.5t11 19t5 8.5l2 4q7 11 19.5 14.5t23.5 -2.5q11 -7 14 -19.5 t-3 -23.5z" horiz-adv-x="542" unicode="É"/>
<glyph glyph-name="Ecircumflex" d="M71 315h316q15 0 25 -10.5t10 -25.5q0 -14 -10 -24.5t-25 -10.5h-316v-5q0 -35 13.5 -65.5t36 -53.5t53 -36.5t65.5 -13.5h181q14 0 24.5 -10t10.5 -25q0 -14 -10 -24.5t-25 -10.5h-181q-49 0 -92.5 19t-76 51.5t-51.5 76t-19 92.5v81q0 49 19 92.5t51.5 76t76 51.5 t92.5 19h181q15 0 25 -10.5t10 -24.5q0 -15 -10.5 -25t-24.5 -10h-181q-35 0 -65.5 -13.5t-53 -36.5t-36 -54t-13.5 -65v-5zM250 657l-62 -53q-9 -8 -21.5 -7.5t-20.5 10.5q-8 9 -7 21.5t10 20.5l69 59q13 12 32 12q18 0 32 -12l69 -59q10 -8 11 -20.5t-7 -21.5 q-8 -10 -20.5 -10.5t-21.5 7.5z" horiz-adv-x="542" unicode="Ê"/>
<glyph glyph-name="Edieresis" d="M71 315h316q15 0 25 -10.5t10 -25.5q0 -14 -10 -24.5t-25 -10.5h-316v-5q0 -35 13.5 -65.5t36 -53.5t53 -36.5t65.5 -13.5h181q14 0 24.5 -10t10.5 -25q0 -14 -10 -24.5t-25 -10.5h-181q-49 0 -92.5 19t-76 51.5t-51.5 76t-19 92.5v81q0 49 19 92.5t51.5 76t76 51.5 t92.5 19h181q15 0 25 -10.5t10 -24.5q0 -15 -10.5 -25t-24.5 -10h-181q-35 0 -65.5 -13.5t-53 -36.5t-36 -54t-13.5 -65v-5zM186 636q-16 0 -26.5 11t-10.5 26t10.5 26t26.5 11q15 0 25.5 -11t10.5 -26t-10.5 -26t-25.5 -11zM280 673q0 15 10.5 26t25.5 11q16 0 26.5 -11 t10.5 -26t-10.5 -26t-26.5 -11q-15 0 -25.5 11t-10.5 26z" horiz-adv-x="542" unicode="Ë"/>
<glyph glyph-name="Igrave" d="M121 35q0 -14 -10 -24.5t-25 -10.5q-14 0 -24.5 10.5t-10.5 24.5v489q0 14 10.5 24.5t24.5 10.5q15 0 25 -10.5t10 -24.5v-489zM10 700q-6 11 -3 23.5t14 19.5q11 6 23.5 2.5t19.5 -14.5l2 -4t5 -8.5t11 -19t20 -34.5q7 -11 3.5 -23.5t-14.5 -18.5q-11 -7 -23.5 -3.5 t-19.5 14.5z" horiz-adv-x="268" unicode="Ì"/>
<glyph glyph-name="Iacute" d="M74 35q0 -14 -10 -24.5t-25 -10.5q-14 0 -24.5 10.5t-10.5 24.5v489q0 14 10.5 24.5t24.5 10.5q15 0 25 -10.5t10 -24.5v-489zM64 634q-7 -11 -19.5 -14.5t-23.5 3.5q-11 6 -14.5 18.5t3.5 23.5q13 22 20 34.5t11 19t5 8.5l2 4q7 11 19.5 14.5t23.5 -2.5q11 -7 14 -19.5 t-3 -23.5z" horiz-adv-x="191" unicode="Í"/>
<glyph glyph-name="Icircumflex" d="M148 35q0 -14 -10 -24.5t-25 -10.5q-14 0 -24.5 10.5t-10.5 24.5v489q0 14 10.5 24.5t24.5 10.5q15 0 25 -10.5t10 -24.5v-489zM115 657l-62 -53q-9 -8 -21.5 -7.5t-20.5 10.5q-8 9 -7 21.5t10 20.5l69 59q13 12 32 12q18 0 32 -12l69 -59q10 -8 11 -20.5t-7 -21.5 q-8 -10 -20.5 -10.5t-21.5 7.5z" horiz-adv-x="344" unicode="Î"/>
<glyph glyph-name="Idieresis" d="M134 35q0 -14 -10 -24.5t-25 -10.5q-14 0 -24.5 10.5t-10.5 24.5v489q0 14 10.5 24.5t24.5 10.5q15 0 25 -10.5t10 -24.5v-489zM35 636q-16 0 -26.5 11t-10.5 26t10.5 26t26.5 11q15 0 25.5 -11t10.5 -26t-10.5 -26t-25.5 -11zM129 673q0 15 10.5 26t25.5 11 q16 0 26.5 -11t10.5 -26t-10.5 -26t-26.5 -11q-15 0 -25.5 11t-10.5 26z" horiz-adv-x="356" unicode="Ï"/>
<glyph glyph-name="Eth" d="M103 41q-34 36 -34 86v117h-55q-14 0 -24 9.5t-10 26.5q0 14 10.5 24.5t24.5 10.5h54v117q0 50 34 86l3 4q37 37 89 37h128q49 0 92.5 -19t76 -51.5t51.5 -76t19 -92.5v-81q0 -49 -19 -92.5t-51.5 -76t-76 -51.5t-92.5 -19h-128q-52 0 -89 37l-3 3v1zM139 244v-117 q0 -21 15 -38l2 -2q8 -8 18 -12.5t21 -4.5h128q34 0 65 13.5t54 36.5t36.5 53.5t13.5 65.5v81q0 34 -13.5 65t-36.5 54t-54 36.5t-65 13.5h-128q-11 0 -21 -4.5t-18 -12.5l-2 -2q-15 -17 -15 -38v-117h54q14 0 24.5 -10.5t10.5 -24.5q0 -16 -9 -26t-22 -10h-58z" horiz-adv-x="647" unicode="Ð"/>
<glyph glyph-name="Ntilde" d="M472 74v449q0 14 10.5 24t24.5 10t24 -10t10 -24v-458q0 -26 -18.5 -45.5t-45.5 -19.5q-15 0 -29.5 6.5t-23.5 18.5l-356 460v-449q0 -14 -10 -24t-24 -10t-24 10t-10 24v458q0 26 18 45.5t47 19.5q15 0 28.5 -7t23.5 -18zM396 632l-3 -1q-32 -13 -66 -12.5t-66 14.5 q-39 17 -79 2l-1 -1q-13 -5 -26 1q-13 5 -18 18.5t1 26.5q4 11 19 18q32 12 66 11.5t66 -14.5q39 -17 80 -1q12 5 26 0q13 -6 18 -19t-1 -26q-5 -12 -16 -17z" horiz-adv-x="655" unicode="Ñ"/>
<glyph glyph-name="Ograve" d="M339 559q49 0 92.5 -19t76 -51.5t51.5 -76t19 -92.5v-81q0 -49 -19 -92.5t-51.5 -76t-76 -51.5t-92.5 -19h-100q-49 0 -92.5 19t-76 51.5t-51.5 76t-19 92.5v81q0 49 19 92.5t51.5 76t76 51.5t92.5 19h100zM71 239q0 -35 13.5 -65.5t36 -53.5t53 -36.5t65.5 -13.5h100 q34 0 65 13.5t54 36.5t36.5 53.5t13.5 65.5v81q0 34 -13.5 65t-36.5 54t-54 36.5t-65 13.5h-100q-35 0 -65.5 -13.5t-53 -36.5t-36 -54t-13.5 -65v-81zM238 700q-6 11 -3 23.5t14 19.5q11 6 23.5 2.5t19.5 -14.5l2 -4t5 -8.5t11 -19t20 -34.5q7 -11 3.5 -23.5t-14.5 -18.5 q-11 -7 -23.5 -3.5t-19.5 14.5z" horiz-adv-x="687" unicode="Ò"/>
<glyph glyph-name="Oacute" d="M339 559q49 0 92.5 -19t76 -51.5t51.5 -76t19 -92.5v-81q0 -49 -19 -92.5t-51.5 -76t-76 -51.5t-92.5 -19h-100q-49 0 -92.5 19t-76 51.5t-51.5 76t-19 92.5v81q0 49 19 92.5t51.5 76t76 51.5t92.5 19h100zM71 239q0 -35 13.5 -65.5t36 -53.5t53 -36.5t65.5 -13.5h100 q34 0 65 13.5t54 36.5t36.5 53.5t13.5 65.5v81q0 34 -13.5 65t-36.5 54t-54 36.5t-65 13.5h-100q-35 0 -65.5 -13.5t-53 -36.5t-36 -54t-13.5 -65v-81zM301 634q-7 -11 -19.5 -14.5t-23.5 3.5q-11 6 -14.5 18.5t3.5 23.5q13 22 20 34.5t11 19t5 8.5l2 4q7 11 19.5 14.5 t23.5 -2.5q11 -7 14 -19.5t-3 -23.5z" horiz-adv-x="687" unicode="Ó"/>
<glyph glyph-name="Ocircumflex" d="M339 559q49 0 92.5 -19t76 -51.5t51.5 -76t19 -92.5v-81q0 -49 -19 -92.5t-51.5 -76t-76 -51.5t-92.5 -19h-100q-49 0 -92.5 19t-76 51.5t-51.5 76t-19 92.5v81q0 49 19 92.5t51.5 76t76 51.5t92.5 19h100zM71 239q0 -35 13.5 -65.5t36 -53.5t53 -36.5t65.5 -13.5h100 q34 0 65 13.5t54 36.5t36.5 53.5t13.5 65.5v81q0 34 -13.5 65t-36.5 54t-54 36.5t-65 13.5h-100q-35 0 -65.5 -13.5t-53 -36.5t-36 -54t-13.5 -65v-81zM293 657l-62 -53q-9 -8 -21.5 -7.5t-20.5 10.5q-8 9 -7 21.5t10 20.5l69 59q13 12 32 12q18 0 32 -12l69 -59 q10 -8 11 -20.5t-7 -21.5q-8 -10 -20.5 -10.5t-21.5 7.5z" horiz-adv-x="687" unicode="Ô"/>
<glyph glyph-name="Otilde" d="M339 559q49 0 92.5 -19t76 -51.5t51.5 -76t19 -92.5v-81q0 -49 -19 -92.5t-51.5 -76t-76 -51.5t-92.5 -19h-100q-49 0 -92.5 19t-76 51.5t-51.5 76t-19 92.5v81q0 49 19 92.5t51.5 76t76 51.5t92.5 19h100zM71 239q0 -35 13.5 -65.5t36 -53.5t53 -36.5t65.5 -13.5h100 q34 0 65 13.5t54 36.5t36.5 53.5t13.5 65.5v81q0 34 -13.5 65t-36.5 54t-54 36.5t-65 13.5h-100q-35 0 -65.5 -13.5t-53 -36.5t-36 -54t-13.5 -65v-81zM418 632l-3 -1q-32 -13 -66 -12.5t-66 14.5q-39 17 -79 2l-1 -1q-13 -5 -26 1q-13 5 -18 18.5t1 26.5q4 11 19 18 q32 12 66 11.5t66 -14.5q39 -17 80 -1q12 5 26 0q13 -6 18 -19t-1 -26q-5 -12 -16 -17z" horiz-adv-x="687" unicode="Õ"/>
<glyph glyph-name="Odieresis" d="M339 559q49 0 92.5 -19t76 -51.5t51.5 -76t19 -92.5v-81q0 -49 -19 -92.5t-51.5 -76t-76 -51.5t-92.5 -19h-100q-49 0 -92.5 19t-76 51.5t-51.5 76t-19 92.5v81q0 49 19 92.5t51.5 76t76 51.5t92.5 19h100zM71 239q0 -35 13.5 -65.5t36 -53.5t53 -36.5t65.5 -13.5h100 q34 0 65 13.5t54 36.5t36.5 53.5t13.5 65.5v81q0 34 -13.5 65t-36.5 54t-54 36.5t-65 13.5h-100q-35 0 -65.5 -13.5t-53 -36.5t-36 -54t-13.5 -65v-81zM225 636q-16 0 -26.5 11t-10.5 26t10.5 26t26.5 11q15 0 25.5 -11t10.5 -26t-10.5 -26t-25.5 -11zM319 673q0 15 10.5 26 t25.5 11q16 0 26.5 -11t10.5 -26t-10.5 -26t-26.5 -11q-15 0 -25.5 11t-10.5 26z" horiz-adv-x="687" unicode="Ö"/>
<glyph glyph-name="multiply" d="M101 224l-91 92q-10 9 -10 24q0 14 10 24t24 10t24 -10l92 -91l91 91q10 10 24 10t24.5 -10t10.5 -24t-10 -24l-92 -92l92 -91q10 -12 10 -24q0 -14 -10.5 -24.5t-24.5 -10.5q-13 0 -24 11l-91 91l-92 -91q-11 -11 -24 -11q-14 0 -24 10.5t-10 24.5t10 24z" horiz-adv-x="400" unicode="×"/>
<glyph glyph-name="Oslash" d="M485 525q9 10 24 10t25.5 -10t10.5 -25q0 -13 -10 -25l-8 -7q51 -65 51 -148v-81q0 -49 -19 -92.5t-51.5 -76t-76 -51.5t-92.5 -19h-100q-76 0 -137 43l-9 -9q-11 -11 -25 -11t-24.5 11t-10.5 25q0 15 10 25l8 7q-51 65 -51 148v81q0 49 19 92.5t51.5 76t76 51.5t92.5 19 h100q76 0 137 -43zM153 94q39 -24 86 -24h100q34 0 65 13.5t54 36.5t36.5 53.5t13.5 65.5v81q0 54 -31 97zM425 465q-39 24 -86 24h-100q-35 0 -65.5 -13.5t-53.5 -36.5t-36.5 -54t-13.5 -65v-81q0 -54 31 -97z" horiz-adv-x="687" unicode="Ø"/>
<glyph glyph-name="Ugrave" d="M35 559q15 0 25.5 -10.5t10.5 -24.5v-285q0 -35 13.5 -65.5t36 -53.5t53 -36.5t65.5 -13.5h44q33 0 63.5 13t54 36t37 54t13.5 66v286q0 14 9.5 24t25.5 10q15 0 25 -10.5t10 -24.5v-285q0 -48 -18 -91.5t-51 -77.5h-1q-33 -34 -76.5 -52t-91.5 -18h-44q-49 0 -92.5 19 t-76 51.5t-51.5 76t-19 92.5v287q0 14 10 23.5t25 9.5zM217 700q-6 11 -3 23.5t14 19.5q11 6 23.5 2.5t19.5 -14.5l2 -4t5 -8.5t11 -19t20 -34.5q7 -11 3.5 -23.5t-14.5 -18.5q-11 -7 -23.5 -3.5t-19.5 14.5z" horiz-adv-x="615" unicode="Ù"/>
<glyph glyph-name="Uacute" d="M35 559q15 0 25.5 -10.5t10.5 -24.5v-285q0 -35 13.5 -65.5t36 -53.5t53 -36.5t65.5 -13.5h44q33 0 63.5 13t54 36t37 54t13.5 66v286q0 14 9.5 24t25.5 10q15 0 25 -10.5t10 -24.5v-285q0 -48 -18 -91.5t-51 -77.5h-1q-33 -34 -76.5 -52t-91.5 -18h-44q-49 0 -92.5 19 t-76 51.5t-51.5 76t-19 92.5v287q0 14 10 23.5t25 9.5zM269 634q-7 -11 -19.5 -14.5t-23.5 3.5q-11 6 -14.5 18.5t3.5 23.5q13 22 20 34.5t11 19t5 8.5l2 4q7 11 19.5 14.5t23.5 -2.5q11 -7 14 -19.5t-3 -23.5z" horiz-adv-x="615" unicode="Ú"/>
<glyph glyph-name="Ucircumflex" d="M35 559q15 0 25.5 -10.5t10.5 -24.5v-285q0 -35 13.5 -65.5t36 -53.5t53 -36.5t65.5 -13.5h44q33 0 63.5 13t54 36t37 54t13.5 66v286q0 14 9.5 24t25.5 10q15 0 25 -10.5t10 -24.5v-285q0 -48 -18 -91.5t-51 -77.5h-1q-33 -34 -76.5 -52t-91.5 -18h-44q-49 0 -92.5 19 t-76 51.5t-51.5 76t-19 92.5v287q0 14 10 23.5t25 9.5zM259 657l-62 -53q-9 -8 -21.5 -7.5t-20.5 10.5q-8 9 -7 21.5t10 20.5l69 59q13 12 32 12q18 0 32 -12l69 -59q10 -8 11 -20.5t-7 -21.5q-8 -10 -20.5 -10.5t-21.5 7.5z" horiz-adv-x="615" unicode="Û"/>
<glyph glyph-name="Udieresis" d="M35 559q15 0 25.5 -10.5t10.5 -24.5v-285q0 -35 13.5 -65.5t36 -53.5t53 -36.5t65.5 -13.5h44q33 0 63.5 13t54 36t37 54t13.5 66v286q0 14 9.5 24t25.5 10q15 0 25 -10.5t10 -24.5v-285q0 -48 -18 -91.5t-51 -77.5h-1q-33 -34 -76.5 -52t-91.5 -18h-44q-49 0 -92.5 19 t-76 51.5t-51.5 76t-19 92.5v287q0 14 10 23.5t25 9.5zM202 636q-16 0 -26.5 11t-10.5 26t10.5 26t26.5 11q15 0 25.5 -11t10.5 -26t-10.5 -26t-25.5 -11zM296 673q0 15 10.5 26t25.5 11q16 0 26.5 -11t10.5 -26t-10.5 -26t-26.5 -11q-15 0 -25.5 11t-10.5 26z" horiz-adv-x="615" unicode="Ü"/>
<glyph glyph-name="Yacute" d="M280 35q0 -14 -10.5 -24.5t-25.5 -10.5q-14 0 -24.5 10.5t-10.5 24.5v112q-80 11 -139 68v1q-34 34 -52 77t-18 91v140q0 14 10.5 24.5t24.5 10.5q15 0 25.5 -10.5t10.5 -24.5v-140q0 -34 13 -64.5t35.5 -53.5t53 -36.5t66.5 -13.5h11q34 0 65 13.5t53.5 36.5t36 53.5 t13.5 64.5v140q0 14 10.5 24.5t24.5 10.5q15 0 25.5 -10.5t10.5 -24.5v-140q0 -48 -18.5 -91t-51.5 -77v-1q-59 -57 -139 -68v-112zM268 634q-7 -11 -19.5 -14.5t-23.5 3.5q-11 6 -14.5 18.5t3.5 23.5q13 22 20 34.5t11 19t5 8.5l2 4q7 11 19.5 14.5t23.5 -2.5 q11 -7 14 -19.5t-3 -23.5z" horiz-adv-x="573" unicode="Ý"/>
<glyph glyph-name="Thorn" d="M71 84v-147q0 -15 -10.5 -25.5t-24.5 -10.5q-17 0 -26.5 10.5t-9.5 24.5v675q0 14 10 24.5t26 10.5q14 0 24.5 -10.5t10.5 -24.5v-147h187q39 0 73.5 -15t60.5 -41t41 -60.5t15 -73.5t-15 -73.5t-41 -60.5t-60.5 -41t-73.5 -15h-187zM71 155h187q23 0 44.5 9t38 25 t26 37.5t9.5 47.5q0 24 -9 45.5t-25 37.5t-37.5 25.5t-45.5 10.5h-188v-238z" horiz-adv-x="552" unicode="Þ"/>
<glyph glyph-name="germandbls" d="M98 35q0 14 10.5 24.5t24.5 10.5h123q24 0 45.5 9.5t38 25t26 36.5t9.5 45t-9.5 45t-25 37.5t-37 26t-45.5 9.5h-187v-367q0 -15 -10.5 -25.5t-25.5 -10.5q-17 0 -26 11t-9 23v497q0 50 34 86l3 4q37 37 90 37h129q26 0 49.5 -9.5t41.5 -27.5l3 -4q34 -36 34 -86 q0 -47 -31 -83q44 -25 68.5 -70t24.5 -93q0 -38 -15 -72t-41 -59.5t-60.5 -40.5t-73.5 -15h-121q-15 0 -26 8.5t-11 27.5zM257 375q23 0 39.5 17t16.5 40q0 21 -15 38l-2 2q-16 16 -40 16h-129q-22 0 -40 -16l-1 -2q-15 -17 -15 -38v-57h174h12z" horiz-adv-x="567" unicode="ß"/>
<glyph glyph-name="agrave" d="M250 423q36 0 68 -14t56.5 -38.5t38.5 -56.5t14 -68v-69q0 -36 -14 -68.5t-38.5 -56.5t-56.5 -38t-68 -14h-100q-30 0 -56 11t-45.5 30.5t-30.5 45.5t-11 56t11 56t30.5 45.5t45.5 30.5t56 11h199q-11 30 -39 48.5t-60 18.5h-158q-15 0 -25 10.5t-10 24.5q0 16 8.5 25.5 t22.5 9.5h162zM227 70h23q22 0 41.5 9t34 23.5t23 34t8.5 40.5v39h-207q-30 0 -51.5 -21.5t-21.5 -51.5t21.5 -51.5t51.5 -21.5h77zM173 560q-6 11 -3 23.5t14 19.5q11 6 23.5 2.5t19.5 -14.5l2 -4t5 -8.5t11 -19t20 -34.5q7 -11 3.5 -23.5t-14.5 -18.5q-11 -7 -23.5 -3.5 t-19.5 14.5z" horiz-adv-x="530" unicode="à"/>
<glyph glyph-name="aacute" d="M241 423q36 0 68 -14t56.5 -38.5t38.5 -56.5t14 -68v-69q0 -36 -14 -68.5t-38.5 -56.5t-56.5 -38t-68 -14h-100q-30 0 -56 11t-45.5 30.5t-30.5 45.5t-11 56t11 56t30.5 45.5t45.5 30.5t56 11h199q-11 30 -39 48.5t-60 18.5h-158q-15 0 -25 10.5t-10 24.5q0 16 8.5 25.5 t22.5 9.5h162zM218 70h23q22 0 41.5 9t34 23.5t23 34t8.5 40.5v39h-207q-30 0 -51.5 -21.5t-21.5 -51.5t21.5 -51.5t51.5 -21.5h77zM219 494q-7 -11 -19.5 -14.5t-23.5 3.5q-11 6 -14.5 18.5t3.5 23.5q13 22 20 34.5t11 19t5 8.5l2 4q7 11 19.5 14.5t23.5 -2.5 q11 -7 14 -19.5t-3 -23.5z" horiz-adv-x="521" unicode="á"/>
<glyph glyph-name="acircumflex" d="M241 423q36 0 68 -14t56.5 -38.5t38.5 -56.5t14 -68v-69q0 -36 -14 -68.5t-38.5 -56.5t-56.5 -38t-68 -14h-100q-30 0 -56 11t-45.5 30.5t-30.5 45.5t-11 56t11 56t30.5 45.5t45.5 30.5t56 11h199q-11 30 -39 48.5t-60 18.5h-158q-15 0 -25 10.5t-10 24.5q0 16 8.5 25.5 t22.5 9.5h162zM218 70h23q22 0 41.5 9t34 23.5t23 34t8.5 40.5v39h-207q-30 0 -51.5 -21.5t-21.5 -51.5t21.5 -51.5t51.5 -21.5h77zM209 517l-62 -53q-9 -8 -21.5 -7.5t-20.5 10.5q-8 9 -7 21.5t10 20.5l69 59q13 12 32 12q18 0 32 -12l69 -59q10 -8 11 -20.5t-7 -21.5 q-8 -10 -20.5 -10.5t-21.5 7.5z" horiz-adv-x="521" unicode="â"/>
<glyph glyph-name="atilde" d="M223 423q36 0 68 -14t56.5 -38.5t38.5 -56.5t14 -68v-69q0 -36 -14 -68.5t-38.5 -56.5t-56.5 -38t-68 -14h-100q-30 0 -56 11t-45.5 30.5t-30.5 45.5t-11 56t11 56t30.5 45.5t45.5 30.5t56 11h199q-11 30 -39 48.5t-60 18.5h-158q-15 0 -25 10.5t-10 24.5q0 16 8.5 25.5 t22.5 9.5h162zM200 70h23q22 0 41.5 9t34 23.5t23 34t8.5 40.5v39h-207q-30 0 -51.5 -21.5t-21.5 -51.5t21.5 -51.5t51.5 -21.5h77zM317 482l-3 -1q-32 -13 -66 -12.5t-66 14.5q-39 17 -79 2l-1 -1q-13 -5 -26 1q-13 5 -18 18.5t1 26.5q4 11 19 18q32 12 66 11.5t66 -14.5 q39 -17 80 -1q12 5 26 0q13 -6 18 -19t-1 -26q-5 -12 -16 -17z" horiz-adv-x="503" unicode="ã"/>
<glyph glyph-name="adieresis" d="M223 423q36 0 68 -14t56.5 -38.5t38.5 -56.5t14 -68v-69q0 -36 -14 -68.5t-38.5 -56.5t-56.5 -38t-68 -14h-100q-30 0 -56 11t-45.5 30.5t-30.5 45.5t-11 56t11 56t30.5 45.5t45.5 30.5t56 11h199q-11 30 -39 48.5t-60 18.5h-158q-15 0 -25 10.5t-10 24.5q0 16 8.5 25.5 t22.5 9.5h162zM200 70h23q22 0 41.5 9t34 23.5t23 34t8.5 40.5v39h-207q-30 0 -51.5 -21.5t-21.5 -51.5t21.5 -51.5t51.5 -21.5h77zM129 486q-16 0 -26.5 11t-10.5 26t10.5 26t26.5 11q15 0 25.5 -11t10.5 -26t-10.5 -26t-25.5 -11zM223 523q0 15 10.5 26t25.5 11 q16 0 26.5 -11t10.5 -26t-10.5 -26t-26.5 -11q-15 0 -25.5 11t-10.5 26z" horiz-adv-x="503" unicode="ä"/>
<glyph glyph-name="aring" d="M184 659q19 0 37 -7.5t32 -21t22 -31.5t8 -39q0 -20 -8 -38t-21.5 -31.5t-31.5 -21.5t-38 -8q-21 0 -39.5 8t-31.5 22t-20.5 31.5t-7.5 37.5q0 21 8 39t21.5 31.5t31.5 21t38 7.5zM209 585q-11 11 -25 11q-15 0 -25.5 -11t-10.5 -25q0 -13 9.5 -24t26.5 -11 q14 0 24.5 10.5t10.5 24.5q0 15 -10 25zM223 423q36 0 68 -14t56.5 -38.5t38.5 -56.5t14 -68v-69q0 -36 -14 -68.5t-38.5 -56.5t-56.5 -38t-68 -14h-100q-30 0 -56 11t-45.5 30.5t-30.5 45.5t-11 56t11 56t30.5 45.5t45.5 30.5t56 11h199q-11 30 -39 48.5t-60 18.5h-158 q-15 0 -25 10.5t-10 24.5q0 16 8.5 25.5t22.5 9.5h162zM200 70h23q22 0 41.5 9t34 23.5t23 34t8.5 40.5v39h-207q-30 0 -51.5 -21.5t-21.5 -51.5t21.5 -51.5t51.5 -21.5h77z" horiz-adv-x="503" unicode="å"/>
<glyph glyph-name="ae" d="M362 138l2 -4q12 -30 39 -47t59 -17h97q14 0 24.5 -10.5t10.5 -24.5t-10.5 -24.5t-24.5 -10.5h-97q-42 0 -80 19t-62 53q-29 -34 -64 -53t-79 -19h-34q-30 0 -56 11t-45.5 30.5t-30.5 45.5t-11 56t11 56t30.5 45.5t45.5 30.5t56 11h134q-14 32 -40.5 49.5t-59.5 17.5h-92 q-15 0 -25 10.5t-10 24.5q0 17 10 26t24 9h93q44 0 79 -19t64 -53q24 34 62 53t80 19q36 0 68.5 -14t56.5 -38.5t38 -56.5t14 -68v-63q0 -19 -13 -32t-31 -13h-233zM285 216h-142q-30 0 -51.5 -21.5t-21.5 -51.5t21.5 -51.5t51.5 -21.5h34q22 0 42 9t34.5 23.5t23 34 t8.5 40.5v39zM570 208v38q0 21 -8.5 40.5t-23 34t-34.5 23.5t-42 9q-23 0 -42.5 -9t-34 -23.5t-23 -34t-8.5 -40.5v-38h216z" horiz-adv-x="762" unicode="æ"/>
<glyph glyph-name="ccedilla" d="M356 388q0 -14 -10 -24.5t-24 -10.5h-145q-22 0 -41.5 -8.5t-34 -22.5t-23 -34t-8.5 -42v-69q0 -22 8.5 -41.5t23 -34t34 -23t41.5 -8.5h146q14 0 23.5 -10t9.5 -25q0 -14 -10 -24.5t-24 -10.5h-145q-36 0 -68.5 14t-56.5 38t-38 56.5t-14 68.5v69q0 36 14 68t38 56.5 t56.5 38.5t68.5 14h147q13 0 22.5 -10t9.5 -25zM193 59q20 0 37.5 -7.5t31 -21t21.5 -31.5t8 -39q0 -20 -8 -37.5t-21.5 -31t-31 -21.5t-37.5 -8q-14 0 -23 9t-9 22q0 18 10.5 23.5t23 8.5t23 9.5t10.5 25.5t-10.5 25.5t-23 10t-23 9t-10.5 22.5q0 14 9 23t23 9z" horiz-adv-x="438" unicode="ç"/>
<glyph glyph-name="egrave" d="M77 138l2 -4q16 -32 41.5 -48t56.5 -16h166q14 0 24.5 -10.5t10.5 -24.5t-10.5 -24.5t-24.5 -10.5h-166q-37 0 -69 14t-56 38.5t-38 58.5t-14 74v61q0 36 14 68t38 56.5t56.5 38.5t68.5 14h69q36 0 68 -14t56.5 -38.5t38.5 -56.5t14 -68v-63q0 -19 -13 -32t-32 -13h-301z M353 208v38q0 22 -8.5 41.5t-23 34t-34 23t-41.5 8.5h-69q-22 0 -41.5 -8.5t-34 -23t-23 -34t-8.5 -41.5v-38h283zM167 560q-6 11 -3 23.5t14 19.5q11 6 23.5 2.5t19.5 -14.5l2 -4t5 -8.5t11 -19t20 -34.5q7 -11 3.5 -23.5t-14.5 -18.5q-11 -7 -23.5 -3.5t-19.5 14.5z" unicode="è"/>
<glyph glyph-name="eacute" d="M77 138l2 -4q16 -32 41.5 -48t56.5 -16h166q14 0 24.5 -10.5t10.5 -24.5t-10.5 -24.5t-24.5 -10.5h-166q-37 0 -69 14t-56 38.5t-38 58.5t-14 74v61q0 36 14 68t38 56.5t56.5 38.5t68.5 14h69q36 0 68 -14t56.5 -38.5t38.5 -56.5t14 -68v-63q0 -19 -13 -32t-32 -13h-301z M353 208v38q0 22 -8.5 41.5t-23 34t-34 23t-41.5 8.5h-69q-22 0 -41.5 -8.5t-34 -23t-23 -34t-8.5 -41.5v-38h283zM218 494q-7 -11 -19.5 -14.5t-23.5 3.5q-11 6 -14.5 18.5t3.5 23.5q13 22 20 34.5t11 19t5 8.5l2 4q7 11 19.5 14.5t23.5 -2.5q11 -7 14 -19.5t-3 -23.5z" unicode="é"/>
<glyph glyph-name="ecircumflex" d="M84 138l2 -4q16 -32 41.5 -48t56.5 -16h166q14 0 24.5 -10.5t10.5 -24.5t-10.5 -24.5t-24.5 -10.5h-166q-37 0 -69 14t-56 38.5t-38 58.5t-14 74v61q0 36 14 68t38 56.5t56.5 38.5t68.5 14h69q36 0 68 -14t56.5 -38.5t38.5 -56.5t14 -68v-63q0 -19 -13 -32t-32 -13h-301z M360 208v38q0 22 -8.5 41.5t-23 34t-34 23t-41.5 8.5h-69q-22 0 -41.5 -8.5t-34 -23t-23 -34t-8.5 -41.5v-38h283zM221 517l-62 -53q-9 -8 -21.5 -7.5t-20.5 10.5q-8 9 -7 21.5t10 20.5l69 59q13 12 32 12q18 0 32 -12l69 -59q10 -8 11 -20.5t-7 -21.5q-8 -10 -20.5 -10.5 t-21.5 7.5z" unicode="ê"/>
<glyph glyph-name="edieresis" d="M77 138l2 -4q16 -32 41.5 -48t56.5 -16h166q14 0 24.5 -10.5t10.5 -24.5t-10.5 -24.5t-24.5 -10.5h-166q-37 0 -69 14t-56 38.5t-38 58.5t-14 74v61q0 36 14 68t38 56.5t56.5 38.5t68.5 14h69q36 0 68 -14t56.5 -38.5t38.5 -56.5t14 -68v-63q0 -19 -13 -32t-32 -13h-301z M353 208v38q0 22 -8.5 41.5t-23 34t-34 23t-41.5 8.5h-69q-22 0 -41.5 -8.5t-34 -23t-23 -34t-8.5 -41.5v-38h283zM150 486q-16 0 -26.5 11t-10.5 26t10.5 26t26.5 11q15 0 25.5 -11t10.5 -26t-10.5 -26t-25.5 -11zM244 523q0 15 10.5 26t25.5 11q16 0 26.5 -11t10.5 -26 t-10.5 -26t-26.5 -11q-15 0 -25.5 11t-10.5 26z" unicode="ë"/>
<glyph glyph-name="igrave" d="M34 388q0 14 10.5 24.5t24.5 10.5q15 0 25.5 -10.5t10.5 -24.5v-353q0 -14 -10.5 -24.5t-25.5 -10.5q-14 0 -24.5 10.5t-10.5 24.5v353zM8 560q-6 11 -3 23.5t14 19.5q11 6 23.5 2.5t19.5 -14.5l2 -4t5 -8.5t11 -19t20 -34.5q7 -11 3.5 -23.5t-14.5 -18.5 q-11 -7 -23.5 -3.5t-19.5 14.5z" horiz-adv-x="259" unicode="ì"/>
<glyph glyph-name="iacute" d="M7 388q0 14 10.5 24.5t24.5 10.5q15 0 25.5 -10.5t10.5 -24.5v-353q0 -14 -10.5 -24.5t-25.5 -10.5q-14 0 -24.5 10.5t-10.5 24.5v353zM65 494q-7 -11 -19.5 -14.5t-23.5 3.5q-11 6 -14.5 18.5t3.5 23.5q13 22 20 34.5t11 19t5 8.5l2 4q7 11 19.5 14.5t23.5 -2.5 q11 -7 14 -19.5t-3 -23.5z" horiz-adv-x="171" unicode="í"/>
<glyph glyph-name="icircumflex" d="M81 388q0 14 10.5 24.5t24.5 10.5q15 0 25.5 -10.5t10.5 -24.5v-353q0 -14 -10.5 -24.5t-25.5 -10.5q-14 0 -24.5 10.5t-10.5 24.5v353zM117 517l-62 -53q-9 -8 -21.5 -7.5t-20.5 10.5q-8 9 -7 21.5t10 20.5l69 59q13 12 32 12q18 0 32 -12l69 -59q10 -8 11 -20.5 t-7 -21.5q-8 -10 -20.5 -10.5t-21.5 7.5z" horiz-adv-x="356" unicode="î"/>
<glyph glyph-name="idieresis" d="M66 388q0 14 10.5 24.5t24.5 10.5q15 0 25.5 -10.5t10.5 -24.5v-353q0 -14 -10.5 -24.5t-25.5 -10.5q-14 0 -24.5 10.5t-10.5 24.5v353zM38 486q-16 0 -26.5 11t-10.5 26t10.5 26t26.5 11q15 0 25.5 -11t10.5 -26t-10.5 -26t-25.5 -11zM132 523q0 15 10.5 26t25.5 11 q16 0 26.5 -11t10.5 -26t-10.5 -26t-26.5 -11q-15 0 -25.5 11t-10.5 26z" horiz-adv-x="338" unicode="ï"/>
<glyph glyph-name="eth" d="M83 524q0 12 8 23.5t21 11.5h3q59 0 111 -22.5t90.5 -61.5t60.5 -91t22 -110v-86q0 -38 -15 -72.5t-40.5 -60t-59.5 -40.5t-73 -15h-23q-39 0 -73 15t-59.5 40.5t-40.5 59.5t-15 73t15 73t40.5 59.5t59.5 40.5t73 15h23q59 0 106 -32q-11 32 -31 58.5t-47 45.5 t-58.5 29.5t-65.5 10.5h3q-14 0 -24.5 10.5t-10.5 25.5zM188 306q-24 0 -45.5 -9.5t-37 -25.5t-25 -37.5t-9.5 -45.5t9.5 -45.5t25 -37.5t37 -25.5t45.5 -9.5h23q24 0 45.5 9.5t37.5 26t25.5 38t9.5 44.5t-9 44t-24.5 37.5t-37 26t-45.5 10.5h-25zM235 452 q-7 -11 -19.5 -14.5t-23.5 3.5t-14 19.5t3 23.5q13 22 20 34.5t11 19t5 8.5t2 3q7 11 19.5 14.5t23.5 -2.5q11 -7 14.5 -19.5t-3.5 -23.5z" horiz-adv-x="508" unicode="ð"/>
<glyph glyph-name="ntilde" d="M0 259q3 34 18 64t39 52.5t54.5 35t65.5 12.5h69q34 0 65 -13t54.5 -35t39 -52t18.5 -64v-224q0 -14 -10 -24.5t-25 -10.5q-14 0 -24.5 10.5t-10.5 24.5v211q0 22 -8.5 41.5t-23 34t-34 23t-41.5 8.5h-69q-21 0 -40.5 -8t-34 -22.5t-23.5 -33.5t-9 -41v-213 q0 -14 -10.5 -24.5t-24.5 -10.5t-24.5 10.5t-10.5 24.5v224zM335 482l-3 -1q-32 -13 -66 -12.5t-66 14.5q-39 17 -79 2l-1 -1q-13 -5 -26 1q-13 5 -18 18.5t1 26.5q4 11 19 18q32 12 66 11.5t66 -14.5q39 -17 80 -1q12 5 26 0q13 -6 18 -19t-1 -26q-5 -12 -16 -17z" horiz-adv-x="531" unicode="ñ"/>
<glyph glyph-name="ograve" d="M246 423q36 0 68 -14t56.5 -38.5t38.5 -56.5t14 -68v-69q0 -36 -14 -68.5t-38.5 -56.5t-56.5 -38t-68 -14h-69q-36 0 -68.5 14t-56.5 38t-38 56.5t-14 68.5v69q0 36 14 68t38 56.5t56.5 38.5t68.5 14h69zM177 353q-22 0 -41.5 -8.5t-34 -22.5t-23 -34t-8.5 -42v-69 q0 -22 8.5 -41.5t23 -34t34 -23t41.5 -8.5h69q22 0 41.5 8.5t34 23t23 34t8.5 41.5v69q0 22 -8.5 41.5t-23 34t-34 23t-41.5 8.5h-69zM165 560q-6 11 -3 23.5t14 19.5q11 6 23.5 2.5t19.5 -14.5l2 -4t5 -8.5t11 -19t20 -34.5q7 -11 3.5 -23.5t-14.5 -18.5q-11 -7 -23.5 -3.5 t-19.5 14.5z" unicode="ò"/>
<glyph glyph-name="oacute" d="M246 423q36 0 68 -14t56.5 -38.5t38.5 -56.5t14 -68v-69q0 -36 -14 -68.5t-38.5 -56.5t-56.5 -38t-68 -14h-69q-36 0 -68.5 14t-56.5 38t-38 56.5t-14 68.5v69q0 36 14 68t38 56.5t56.5 38.5t68.5 14h69zM177 353q-22 0 -41.5 -8.5t-34 -22.5t-23 -34t-8.5 -42v-69 q0 -22 8.5 -41.5t23 -34t34 -23t41.5 -8.5h69q22 0 41.5 8.5t34 23t23 34t8.5 41.5v69q0 22 -8.5 41.5t-23 34t-34 23t-41.5 8.5h-69zM222 494q-7 -11 -19.5 -14.5t-23.5 3.5q-11 6 -14.5 18.5t3.5 23.5q13 22 20 34.5t11 19t5 8.5l2 4q7 11 19.5 14.5t23.5 -2.5 q11 -7 14 -19.5t-3 -23.5z" unicode="ó"/>
<glyph glyph-name="ocircumflex" d="M255 423q36 0 68 -14t56.5 -38.5t38.5 -56.5t14 -68v-69q0 -36 -14 -68.5t-38.5 -56.5t-56.5 -38t-68 -14h-69q-36 0 -68.5 14t-56.5 38t-38 56.5t-14 68.5v69q0 36 14 68t38 56.5t56.5 38.5t68.5 14h69zM186 353q-22 0 -41.5 -8.5t-34 -22.5t-23 -34t-8.5 -42v-69 q0 -22 8.5 -41.5t23 -34t34 -23t41.5 -8.5h69q22 0 41.5 8.5t34 23t23 34t8.5 41.5v69q0 22 -8.5 41.5t-23 34t-34 23t-41.5 8.5h-69zM221 517l-62 -53q-9 -8 -21.5 -7.5t-20.5 10.5q-8 9 -7 21.5t10 20.5l69 59q13 12 32 12q18 0 32 -12l69 -59q10 -8 11 -20.5t-7 -21.5 q-8 -10 -20.5 -10.5t-21.5 7.5z" unicode="ô"/>
<glyph glyph-name="otilde" d="M246 423q36 0 68 -14t56.5 -38.5t38.5 -56.5t14 -68v-69q0 -36 -14 -68.5t-38.5 -56.5t-56.5 -38t-68 -14h-69q-36 0 -68.5 14t-56.5 38t-38 56.5t-14 68.5v69q0 36 14 68t38 56.5t56.5 38.5t68.5 14h69zM177 353q-22 0 -41.5 -8.5t-34 -22.5t-23 -34t-8.5 -42v-69 q0 -22 8.5 -41.5t23 -34t34 -23t41.5 -8.5h69q22 0 41.5 8.5t34 23t23 34t8.5 41.5v69q0 22 -8.5 41.5t-23 34t-34 23t-41.5 8.5h-69zM331 482l-3 -1q-32 -13 -66 -12.5t-66 14.5q-39 17 -79 2l-1 -1q-13 -5 -26 1q-13 5 -18 18.5t1 26.5q4 11 19 18q32 12 66 11.5t66 -14.5 q39 -17 80 -1q12 5 26 0q13 -6 18 -19t-1 -26q-5 -12 -16 -17z" unicode="õ"/>
<glyph glyph-name="odieresis" d="M246 423q36 0 68 -14t56.5 -38.5t38.5 -56.5t14 -68v-69q0 -36 -14 -68.5t-38.5 -56.5t-56.5 -38t-68 -14h-69q-36 0 -68.5 14t-56.5 38t-38 56.5t-14 68.5v69q0 36 14 68t38 56.5t56.5 38.5t68.5 14h69zM177 353q-22 0 -41.5 -8.5t-34 -22.5t-23 -34t-8.5 -42v-69 q0 -22 8.5 -41.5t23 -34t34 -23t41.5 -8.5h69q22 0 41.5 8.5t34 23t23 34t8.5 41.5v69q0 22 -8.5 41.5t-23 34t-34 23t-41.5 8.5h-69zM148 486q-16 0 -26.5 11t-10.5 26t10.5 26t26.5 11q15 0 25.5 -11t10.5 -26t-10.5 -26t-25.5 -11zM242 523q0 15 10.5 26t25.5 11 q16 0 26.5 -11t10.5 -26t-10.5 -26t-26.5 -11q-15 0 -25.5 11t-10.5 26z" unicode="ö"/>
<glyph glyph-name="divide" d="M224 449q20 0 33.5 -13.5t13.5 -33.5t-13.5 -33.5t-33.5 -13.5t-33.5 13.5t-13.5 33.5t13.5 33.5t33.5 13.5zM35 189q-14 0 -24.5 10.5t-10.5 24.5q0 15 10.5 25t24.5 10h379q14 0 24.5 -10t10.5 -25q0 -14 -10.5 -24.5t-24.5 -10.5h-379zM224 94q20 0 33.5 -13.5 t13.5 -33.5t-13.5 -33.5t-33.5 -13.5t-33.5 13.5t-13.5 33.5t13.5 33.5t33.5 13.5z" horiz-adv-x="573" unicode="÷"/>
<glyph glyph-name="oslash" d="M351 400q10 10 25 10q14 0 24 -10t10 -24q0 -15 -10 -25l-7 -7q30 -44 30 -98v-69q0 -36 -14 -68.5t-38.5 -56.5t-56.5 -38t-68 -14h-69q-55 0 -98 30l-7 -7q-11 -11 -25 -11t-24.5 10.5t-10.5 24.5t11 25l7 7q-30 43 -30 98v69q0 36 14 68t38 56.5t56.5 38.5t68.5 14h69 q54 0 98 -30zM293 342q-21 11 -47 11h-69q-22 0 -41.5 -8.5t-34 -22.5t-23 -34t-8.5 -42v-69q0 -23 11 -47zM130 81q24 -11 47 -11h69q22 0 41.5 8.5t34 23t23 34t8.5 41.5v69q0 26 -11 47z" unicode="ø"/>
<glyph glyph-name="ugrave" d="M70 175q0 -22 9 -41t23.5 -33.5t34 -22.5t40.5 -8h32q22 0 42 9t34.5 23.5t23 34t8.5 40.5v211q0 15 10 25t25 10q14 0 24.5 -10t10.5 -25l-1 -224q-3 -34 -18 -64t-39 -52t-55 -35t-65 -13h-32q-35 0 -65.5 12.5t-54 35t-39 52t-18.5 64.5v224q0 15 10.5 25t24.5 10 t24.5 -10t10.5 -25v-213zM154 560q-6 11 -3 23.5t14 19.5q11 6 23.5 2.5t19.5 -14.5l2 -4t5 -8.5t11 -19t20 -34.5q7 -11 3.5 -23.5t-14.5 -18.5q-11 -7 -23.5 -3.5t-19.5 14.5z" horiz-adv-x="498" unicode="ù"/>
<glyph glyph-name="uacute" d="M70 175q0 -22 9 -41t23.5 -33.5t34 -22.5t40.5 -8h32q22 0 42 9t34.5 23.5t23 34t8.5 40.5v211q0 15 10 25t25 10q14 0 24.5 -10t10.5 -25l-1 -224q-3 -34 -18 -64t-39 -52t-55 -35t-65 -13h-32q-35 0 -65.5 12.5t-54 35t-39 52t-18.5 64.5v224q0 15 10.5 25t24.5 10 t24.5 -10t10.5 -25v-213zM210 494q-7 -11 -19.5 -14.5t-23.5 3.5q-11 6 -14.5 18.5t3.5 23.5q13 22 20 34.5t11 19t5 8.5l2 4q7 11 19.5 14.5t23.5 -2.5q11 -7 14 -19.5t-3 -23.5z" horiz-adv-x="498" unicode="ú"/>
<glyph glyph-name="ucircumflex" d="M96 175q0 -22 9 -41t23.5 -33.5t34 -22.5t40.5 -8h32q22 0 42 9t34.5 23.5t23 34t8.5 40.5v211q0 15 10 25t25 10q14 0 24.5 -10t10.5 -25l-1 -224q-3 -34 -18 -64t-39 -52t-55 -35t-65 -13h-32q-35 0 -65.5 12.5t-54 35t-39 52t-18.5 64.5v224q0 15 10.5 25t24.5 10 t24.5 -10t10.5 -25v-213zM225 517l-62 -53q-9 -8 -21.5 -7.5t-20.5 10.5q-8 9 -7 21.5t10 20.5l69 59q13 12 32 12q18 0 32 -12l69 -59q10 -8 11 -20.5t-7 -21.5q-8 -10 -20.5 -10.5t-21.5 7.5z" horiz-adv-x="498" unicode="û"/>
<glyph glyph-name="udieresis" d="M70 175q0 -22 9 -41t23.5 -33.5t34 -22.5t40.5 -8h32q22 0 42 9t34.5 23.5t23 34t8.5 40.5v211q0 15 10 25t25 10q14 0 24.5 -10t10.5 -25l-1 -224q-3 -34 -18 -64t-39 -52t-55 -35t-65 -13h-32q-35 0 -65.5 12.5t-54 35t-39 52t-18.5 64.5v224q0 15 10.5 25t24.5 10 t24.5 -10t10.5 -25v-213zM132 486q-16 0 -26.5 11t-10.5 26t10.5 26t26.5 11q15 0 25.5 -11t10.5 -26t-10.5 -26t-25.5 -11zM226 523q0 15 10.5 26t25.5 11q16 0 26.5 -11t10.5 -26t-10.5 -26t-26.5 -11q-15 0 -25.5 11t-10.5 26z" horiz-adv-x="498" unicode="ü"/>
<glyph glyph-name="yacute" d="M290 10v89q-48 -37 -110 -37q-37 0 -69.5 14.5t-57 39t-39 57.5t-14.5 70v145q0 14 10.5 24.5t24.5 10.5q15 0 25.5 -10.5t10.5 -24.5v-145q0 -23 8.5 -43t23.5 -35t34.5 -23.5t42.5 -8.5t43 8.5t35 23.5t23.5 35t8.5 43v145q0 14 10.5 24.5t24.5 10.5q15 0 25.5 -10.5 t10.5 -24.5v-402q0 -37 -14.5 -69.5t-39.5 -57t-57.5 -39t-69.5 -14.5h-34q-15 0 -25.5 10.5t-10.5 24.5q0 15 10.5 25.5t25.5 10.5h34q22 0 42 8.5t35 23.5t24 35t9 42v24zM195 494q-7 -11 -19.5 -14.5t-23.5 3.5q-11 6 -14.5 18.5t3.5 23.5q13 22 20 34.5t11 19t5 8.5l2 4 q7 11 19.5 14.5t23.5 -2.5q11 -7 14 -19.5t-3 -23.5z" horiz-adv-x="464" unicode="ý"/>
<glyph glyph-name="thorn" d="M71 388q49 37 110 37h70q37 0 70 -14.5t57.5 -39t39 -57.5t14.5 -70v-65q0 -37 -14.5 -70t-39 -57.5t-57.5 -39t-70 -14.5h-70q-61 0 -110 37v-135q0 -15 -10.5 -25.5t-24.5 -10.5q-15 0 -25.5 10.5t-10.5 25.5v623q0 15 10.5 25.5t25.5 10.5q14 0 24.5 -10.5t10.5 -25.5 v-135zM71 177q1 -22 10 -41.5t24 -34t34.5 -23t41.5 -8.5h70q22 0 42 8.5t35 23.5t24 34.5t9 42.5v65q0 23 -9 43t-24 35t-35 23.5t-42 8.5h-70q-22 0 -41.5 -8.5t-34.5 -23.5t-24 -34.5t-10 -41.5v-69z" horiz-adv-x="558" unicode="þ"/>
<glyph glyph-name="circumflex" d="M115 497l-62 -53q-9 -8 -21.5 -7.5t-20.5 10.5q-8 9 -7 21.5t10 20.5l69 59q13 12 32 12q18 0 32 -12l69 -59q10 -8 11 -20.5t-7 -21.5q-8 -10 -20.5 -10.5t-21.5 7.5z" horiz-adv-x="333" unicode="ˆ"/>
<glyph glyph-name="tilde" d="M318 482l-3 -1q-32 -13 -66 -12.5t-66 14.5q-39 17 -79 2l-1 -1q-13 -5 -26 1q-13 5 -18 18.5t1 26.5q4 11 19 18q32 12 66 11.5t66 -14.5q39 -17 80 -1q12 5 26 0q13 -6 18 -19t-1 -26q-5 -12 -16 -17z" horiz-adv-x="416" unicode="˜"/>
</font>
</defs>
</svg>
