<?xml version="1.0" encoding="iso-8859-1"?>
<!-- Generator: Adobe Illustrator 19.0.1, SVG Export Plug-In . SVG Version: 6.00 Build 0)  -->
<svg version="1.1" id="RAW_ICONS_-_SQUARE__x2F__ROUNDED__x2F__CIRCLE"
	 xmlns="http://www.w3.org/2000/svg" xmlns:xlink="http://www.w3.org/1999/xlink" x="0px" y="0px" viewBox="0 0 32 32"
	 style="enable-background:new 0 0 32 32;" xml:space="preserve">
<g>
	<g>
		<path style="fill:#B7CDD9;" d="M16.959,14.824V14.79c-0.006,0.012-0.015,0.024-0.023,0.034H16.959z"/>
		<path style="fill:#B7CDD9;" d="M0,0v32h32V0H0z M11.633,23.646H8.202V13.33h3.431V23.646z M9.917,11.92H9.894
			C8.744,11.92,8,11.127,8,10.137c0-1.012,0.768-1.784,1.939-1.784c1.174,0,1.896,0.772,1.918,1.784
			C11.857,11.127,11.113,11.92,9.917,11.92z M24,23.646h-3.43v-5.52c0-1.387-0.496-2.334-1.738-2.334
			c-0.946,0-1.512,0.641-1.76,1.256c-0.091,0.221-0.113,0.526-0.113,0.836v5.762H13.53c0,0,0.044-9.35,0-10.317h3.429v1.46
			c0.457-0.704,1.271-1.703,3.092-1.703c2.256,0,3.949,1.474,3.949,4.643V23.646z"/>
	</g>
</g>
</svg>
