<?xml version="1.0" encoding="iso-8859-1"?>
<!-- Generator: Adobe Illustrator 19.0.1, SVG Export Plug-In . SVG Version: 6.00 Build 0)  -->
<svg version="1.1" id="RAW_ICONS_-_SQUARE__x2F__ROUNDED__x2F__CIRCLE"
	 xmlns="http://www.w3.org/2000/svg" xmlns:xlink="http://www.w3.org/1999/xlink" x="0px" y="0px" viewBox="0 0 32 32"
	 style="enable-background:new 0 0 32 32;" xml:space="preserve">
<g>
	<path style="fill:#B7CDD9;" d="M0,0v32h32V0H0z"/>
	<linearGradient id="SVGID_1_" gradientUnits="userSpaceOnUse" x1="8.3208" y1="16" x2="23.6792" y2="16">
		<stop  offset="0" style="stop-color:#F2F2F2"/>
		<stop  offset="0.6319" style="stop-color:#FFFFFF"/>
		<stop  offset="1" style="stop-color:#FEFEFE"/>
	</linearGradient>
	<path style="fill:url(#SVGID_1_);" d="M10.293,8.321h11.415c1.084,0,1.971,0.887,1.971,1.971v11.415c0,1.084-0.887,1.97-1.971,1.97
		H10.293c-1.084,0-1.972-0.886-1.972-1.97V10.293C8.321,9.208,9.208,8.321,10.293,8.321z M19.509,10.027
		c-0.381,0-0.691,0.312-0.691,0.693v1.654c0,0.381,0.311,0.692,0.691,0.692h1.736c0.38,0,0.691-0.311,0.691-0.692V10.72
		c0-0.38-0.311-0.693-0.691-0.693H19.509z M21.943,14.816h-1.351c0.128,0.419,0.198,0.86,0.198,1.319
		c0,2.554-2.138,4.625-4.775,4.625c-2.636,0-4.774-2.071-4.774-4.625c0-0.459,0.07-0.9,0.198-1.319h-1.41v6.488
		c0,0.336,0.274,0.609,0.61,0.609h10.695c0.336,0,0.61-0.273,0.61-0.609V14.816z M16.015,12.978c-1.703,0-3.084,1.337-3.084,2.989
		c0,1.65,1.381,2.989,3.084,2.989c1.704,0,3.085-1.339,3.085-2.989C19.099,14.316,17.718,12.978,16.015,12.978z"/>
</g>
</svg>
