<?xml version="1.0" encoding="iso-8859-1"?>
<!-- Generator: Adobe Illustrator 19.0.1, SVG Export Plug-In . SVG Version: 6.00 Build 0)  -->
<svg version="1.1" id="RAW_ICONS_-_SQUARE__x2F__ROUNDED__x2F__CIRCLE"
	 xmlns="http://www.w3.org/2000/svg" xmlns:xlink="http://www.w3.org/1999/xlink" x="0px" y="0px" viewBox="0 0 32 32"
	 style="enable-background:new 0 0 32 32;" xml:space="preserve">
<path style="fill:#B7CDD9;" d="M0,0v32h32V0H0z"/>
<g>
	<path style="fill:#FFFFFF;" d="M22.801,9.227H9.199c-1.167,0-2.117,0.912-2.117,2.033v9.481c0,1.121,0.95,2.033,2.117,2.033h13.602
		c1.167,0,2.117-0.912,2.117-2.033V11.26C24.918,10.139,23.968,9.227,22.801,9.227L22.801,9.227z M22.801,20.979H9.199
		c-0.171,0-0.322-0.111-0.322-0.238v-8.227l6.152,5.194c0.126,0.106,0.286,0.165,0.452,0.165l1.039,0
		c0.165,0,0.325-0.059,0.452-0.165l6.152-5.194v8.227C23.123,20.867,22.973,20.979,22.801,20.979L22.801,20.979z M16,16.09
		l-5.983-5.069h11.967L16,16.09z M16,16.09"/>
</g>
</svg>
