<?xml version="1.0" encoding="iso-8859-1"?>
<!-- Generator: Adobe Illustrator 19.0.1, SVG Export Plug-In . SVG Version: 6.00 Build 0)  -->
<svg version="1.1" id="RAW_ICONS_-_SQUARE__x2F__ROUNDED__x2F__CIRCLE"
	 xmlns="http://www.w3.org/2000/svg" xmlns:xlink="http://www.w3.org/1999/xlink" x="0px" y="0px" viewBox="0 0 32 32"
	 style="enable-background:new 0 0 32 32;" xml:space="preserve">
<path style="fill:#B7CDD9;" d="M0,0v32h32V0H0z M22.362,12.737c0.007,0.141,0.01,0.282,0.01,0.425c0,4.338-3.302,9.34-9.34,9.34
	c-1.854,0-3.579-0.544-5.032-1.475c0.258,0.029,0.519,0.045,0.783,0.045c1.539,0,2.953-0.525,4.076-1.404
	c-1.436-0.027-2.649-0.977-3.065-2.28c0.2,0.038,0.405,0.06,0.617,0.06c0.3,0,0.59-0.041,0.864-0.116
	c-1.5-0.302-2.633-1.628-2.633-3.219c0-0.014,0-0.027,0-0.041c0.443,0.246,0.949,0.394,1.487,0.411
	c-0.881-0.588-1.46-1.593-1.46-2.732c0-0.602,0.162-1.166,0.444-1.65c1.618,1.986,4.038,3.293,6.766,3.43
	c-0.056-0.24-0.085-0.491-0.085-0.748c0-1.813,1.47-3.282,3.283-3.282c0.943,0,1.797,0.399,2.396,1.036
	c0.747-0.147,1.45-0.42,2.085-0.796c-0.246,0.767-0.766,1.41-1.443,1.816c0.664-0.079,1.297-0.255,1.885-0.517
	C23.561,11.696,23.004,12.274,22.362,12.737z"/>
</svg>
