<?xml version="1.0" encoding="iso-8859-1"?>
<!-- Generator: Adobe Illustrator 19.0.1, SVG Export Plug-In . SVG Version: 6.00 Build 0)  -->
<svg version="1.1" id="RAW_ICONS_-_SQUARE__x2F__ROUNDED__x2F__CIRCLE"
	 xmlns="http://www.w3.org/2000/svg" xmlns:xlink="http://www.w3.org/1999/xlink" x="0px" y="0px" viewBox="0 0 32 32"
	 style="enable-background:new 0 0 32 32;" xml:space="preserve">
<g>
	<g>
		<polygon style="fill:#B7CDD9;" points="10.256,17.458 11.199,17.458 11.199,22.149 12.111,22.149 12.111,17.458 13.056,17.458 
			13.056,16.66 10.256,16.66 		"/>
		<path style="fill:#B7CDD9;" d="M15.858,13.563c0.124,0,0.222-0.034,0.294-0.102c0.073-0.068,0.11-0.163,0.11-0.282v-2.43
			c0-0.098-0.037-0.176-0.111-0.237c-0.074-0.059-0.172-0.089-0.293-0.089c-0.11,0-0.201,0.029-0.271,0.089
			c-0.068,0.062-0.104,0.14-0.104,0.237v2.43c0,0.123,0.033,0.217,0.098,0.283C15.645,13.53,15.738,13.563,15.858,13.563z"/>
		<path style="fill:#B7CDD9;" d="M17.87,18.051c-0.126,0-0.25,0.031-0.374,0.096c-0.121,0.064-0.237,0.159-0.347,0.281V16.66h-0.818
			v5.489h0.818v-0.31c0.106,0.125,0.223,0.216,0.347,0.274c0.123,0.059,0.264,0.088,0.423,0.088c0.239,0,0.424-0.075,0.55-0.229
			c0.128-0.154,0.19-0.374,0.19-0.659v-2.248c0-0.331-0.066-0.584-0.202-0.757C18.322,18.136,18.127,18.051,17.87,18.051z
			 M17.825,21.201c0,0.13-0.023,0.222-0.069,0.279c-0.047,0.058-0.119,0.087-0.219,0.087c-0.068,0-0.133-0.016-0.195-0.044
			c-0.063-0.028-0.127-0.079-0.192-0.143v-2.524c0.056-0.056,0.11-0.098,0.167-0.124c0.057-0.026,0.114-0.039,0.172-0.039
			c0.108,0,0.193,0.035,0.252,0.105c0.058,0.07,0.085,0.174,0.085,0.312V21.201z"/>
		<path style="fill:#B7CDD9;" d="M14.913,21.176c-0.076,0.088-0.159,0.16-0.251,0.218c-0.091,0.057-0.167,0.084-0.226,0.084
			c-0.075,0-0.131-0.019-0.166-0.064c-0.032-0.042-0.05-0.111-0.05-0.207V18.1h-0.81v3.386c0,0.242,0.048,0.421,0.142,0.542
			c0.096,0.122,0.235,0.182,0.424,0.182c0.151,0,0.309-0.042,0.47-0.13c0.162-0.085,0.317-0.21,0.467-0.374v0.444h0.81V18.1h-0.81
			V21.176z"/>
		<path style="fill:#B7CDD9;" d="M0,0v32h32V0H0z M17.93,9.762h0.91v3.42c0,0.106,0.021,0.182,0.059,0.229
			c0.037,0.048,0.101,0.071,0.186,0.071c0.066,0,0.152-0.031,0.255-0.094c0.101-0.064,0.195-0.143,0.28-0.239V9.762h0.912v4.461
			h-0.912v-0.494c-0.167,0.182-0.342,0.321-0.524,0.416c-0.182,0.094-0.357,0.144-0.528,0.144c-0.212,0-0.369-0.068-0.477-0.202
			c-0.106-0.131-0.16-0.33-0.16-0.596V9.762z M14.546,10.781c0-0.347,0.123-0.621,0.367-0.825c0.245-0.205,0.576-0.307,0.99-0.307
			c0.377,0,0.686,0.107,0.928,0.323c0.239,0.215,0.359,0.495,0.359,0.834v2.305c0,0.382-0.117,0.68-0.352,0.898
			c-0.237,0.217-0.563,0.325-0.977,0.325c-0.398,0-0.718-0.112-0.957-0.337c-0.238-0.225-0.358-0.525-0.358-0.904V10.781z
			 M12.063,8.175l0.666,2.418h0.064l0.636-2.418h1.042l-1.194,3.539v2.509h-1.025v-2.396L11.03,8.175H12.063z M24,20.902
			c0,1.613-1.31,2.923-2.923,2.923H10.922C9.308,23.825,8,22.516,8,20.902v-2.35c0-1.614,1.308-2.924,2.922-2.924h10.155
			c1.613,0,2.923,1.31,2.923,2.924V20.902z"/>
		<path style="fill:#B7CDD9;" d="M20.313,17.999c-0.362,0-0.656,0.11-0.886,0.331c-0.229,0.221-0.344,0.509-0.344,0.858v1.819
			c0,0.391,0.105,0.697,0.313,0.918c0.208,0.224,0.494,0.334,0.856,0.334c0.403,0,0.707-0.104,0.908-0.312
			c0.205-0.211,0.306-0.525,0.306-0.94V20.8h-0.833v0.185c0,0.238-0.028,0.392-0.08,0.462c-0.054,0.07-0.147,0.105-0.282,0.105
			c-0.129,0-0.221-0.041-0.274-0.123c-0.053-0.083-0.079-0.231-0.079-0.444v-0.763h1.549v-1.033c0-0.384-0.1-0.678-0.299-0.883
			C20.97,18.102,20.685,17.999,20.313,17.999z M20.634,19.592h-0.716v-0.409c0-0.17,0.027-0.292,0.084-0.363
			c0.057-0.075,0.148-0.112,0.277-0.112c0.123,0,0.215,0.037,0.27,0.112c0.056,0.071,0.085,0.193,0.085,0.363V19.592z"/>
	</g>
</g>
</svg>
